<?xml version="1.0" standalone="no"?>
<!DOCTYPE svg PUBLIC "-//W3C//DTD SVG 20010904//EN"
 "http://www.w3.org/TR/2001/REC-SVG-20010904/DTD/svg10.dtd">
<svg version="1.0" xmlns="http://www.w3.org/2000/svg"
 width="763.000000pt" height="735.000000pt" viewBox="0 0 763.000000 735.000000"
 preserveAspectRatio="xMidYMid meet">

<g transform="translate(0.000000,735.000000) scale(0.100000,-0.100000)"
fill="#000000" stroke="none">
<path d="M276 7113 c-71 -12 -100 -65 -52 -96 12 -9 56 -20 97 -26 175 -24
245 -55 294 -129 61 -92 58 -19 63 -1802 4 -1903 -1 -2089 -60 -2312 -15 -58
-29 -88 -57 -118 -33 -38 -42 -42 -121 -56 -96 -17 -149 -32 -167 -46 -23 -18
-14 -47 18 -63 51 -27 147 -31 499 -21 259 7 448 5 840 -8 651 -22 1325 -31
1417 -19 l72 9 6 -40 c2 -23 10 -86 16 -141 22 -207 82 -447 159 -640 37 -95
124 -263 177 -342 21 -31 46 -70 56 -87 66 -108 278 -334 420 -450 268 -217
597 -385 951 -486 468 -135 1128 -175 1716 -104 303 36 537 99 603 162 63 59
93 164 156 542 62 366 61 425 -2 460 -27 14 -29 14 -56 -16 -17 -18 -40 -67
-56 -115 -118 -360 -349 -566 -725 -647 -228 -50 -715 -56 -915 -13 -179 39
-380 115 -540 205 -38 21 -84 46 -100 55 -76 41 -290 217 -385 317 -64 68
-210 247 -210 258 0 2 -16 27 -35 56 -148 220 -269 546 -320 863 -38 239 -36
635 5 917 69 475 253 844 552 1108 295 259 691 376 1223 359 374 -12 678 -81
935 -213 231 -117 357 -272 441 -539 48 -154 98 -202 147 -140 30 38 40 128
46 396 3 136 13 324 22 419 l18 173 -31 27 c-25 23 -46 29 -124 39 -52 7 -137
21 -189 32 -360 74 -721 115 -1115 125 -775 20 -1358 -115 -1818 -423 -386
-258 -671 -598 -842 -1007 -39 -93 -64 -168 -121 -366 -25 -85 -81 -184 -137
-241 -118 -120 -293 -159 -707 -159 -322 1 -534 26 -650 77 -134 59 -173 145
-202 444 -18 191 -19 3261 0 3394 21 154 45 207 111 252 43 29 83 39 196 52
74 7 92 13 108 32 23 29 19 47 -16 73 -28 21 -35 21 -360 16 -434 -6 -491 -6
-887 2 -184 3 -348 4 -364 1z"/>
</g>
</svg>
