<?xml version="1.0" standalone="no"?>
<!DOCTYPE svg PUBLIC "-//W3C//DTD SVG 20010904//EN"
 "http://www.w3.org/TR/2001/REC-SVG-20010904/DTD/svg10.dtd">
<svg version="1.0" xmlns="http://www.w3.org/2000/svg"
 width="906.000000pt" height="773.000000pt" viewBox="0 0 906.000000 773.000000"
 preserveAspectRatio="xMidYMid meet">

<g transform="translate(0.000000,773.000000) scale(0.100000,-0.100000)"
fill="#000000" stroke="none">
<path d="M0 3865 l0 -3865 4530 0 4530 0 0 3865 0 3865 -4530 0 -4530 0 0
-3865z m6490 3525 c15 -8 120 -171 120 -186 0 -2 18 -33 40 -69 22 -36 40 -67
40 -69 0 -2 25 -48 56 -102 31 -55 138 -245 239 -424 180 -321 200 -357 255
-455 15 -27 66 -117 112 -200 47 -82 96 -170 110 -195 14 -25 121 -216 238
-425 118 -209 230 -409 250 -445 20 -36 70 -123 110 -195 41 -71 101 -179 135
-240 34 -60 105 -187 158 -282 70 -124 97 -181 97 -206 0 -23 -17 -62 -53
-123 -59 -99 -258 -436 -772 -1309 -192 -324 -427 -723 -523 -885 -190 -321
-264 -446 -487 -825 -81 -137 -158 -261 -172 -275 l-23 -25 -2046 0 -2046 0
-29 33 c-32 35 -37 72 -16 112 14 26 116 203 232 400 37 63 91 156 120 205 77
133 363 622 400 685 19 30 72 121 119 203 47 81 125 213 172 295 48 81 187
318 309 527 123 209 269 459 325 555 57 96 113 193 126 216 12 22 45 78 73
124 28 46 51 94 51 107 0 25 -31 91 -85 183 -17 30 -85 150 -150 265 -112 199
-260 460 -514 909 -62 109 -124 219 -138 245 -15 25 -63 111 -108 191 -46 80
-95 168 -110 195 -16 28 -39 67 -52 87 -12 21 -23 39 -23 42 0 2 -43 80 -96
172 -53 93 -110 194 -126 224 -17 30 -34 60 -38 65 -4 6 -21 35 -37 65 -30 56
-251 447 -350 620 -47 83 -54 100 -49 135 3 27 14 48 31 62 l26 23 2040 0
c1349 0 2047 -3 2059 -10z m-4425 -947 l25 -26 0 -2458 0 -2458 -23 -26 c-14
-17 -36 -28 -62 -32 -49 -6 -81 16 -120 84 -48 83 -335 573 -400 683 -34 58
-95 161 -135 230 -40 69 -101 172 -135 230 -35 58 -72 121 -82 140 -11 19
-107 184 -213 365 -107 182 -216 368 -244 415 -142 243 -176 306 -176 324 0
23 13 48 185 351 115 205 201 356 437 775 64 113 152 268 195 345 167 294 400
706 481 850 123 217 127 223 164 233 45 11 73 4 103 -25z"/>
</g>
</svg>
