<svg id="svg" version="1.1" xmlns="http://www.w3.org/2000/svg" xmlns:xlink="http://www.w3.org/1999/xlink" width="400" height="341.3907284768212" viewBox="0, 0, 400,341.3907284768212"><g id="svgg"><path id="path0" d="M104.603 15.334 C 104.249 15.664,104.048 16.077,104.156 16.253 C 104.265 16.429,104.157 16.532,103.915 16.482 C 103.672 16.431,103.497 16.648,103.523 16.970 C 103.548 17.289,103.436 17.550,103.274 17.550 C 103.113 17.550,102.980 18.303,102.980 19.225 C 102.980 20.407,103.093 20.830,103.362 20.664 C 103.600 20.517,103.655 20.573,103.507 20.813 C 103.172 21.354,103.615 22.573,104.049 22.305 C 104.262 22.173,104.311 22.238,104.171 22.465 C 103.893 22.915,104.752 24.277,105.097 23.932 C 105.227 23.802,105.225 23.976,105.094 24.319 C 104.914 24.787,104.964 24.875,105.293 24.672 C 105.584 24.492,105.652 24.529,105.496 24.783 C 105.205 25.253,106.081 26.581,106.457 26.240 C 106.606 26.104,106.622 26.179,106.491 26.407 C 106.194 26.923,107.290 28.844,107.728 28.573 C 107.905 28.464,107.944 28.546,107.813 28.756 C 107.536 29.205,108.607 31.166,108.997 30.925 C 109.144 30.834,109.166 31.016,109.046 31.329 C 108.899 31.711,108.953 31.819,109.211 31.660 C 109.470 31.500,109.524 31.608,109.377 31.991 C 109.240 32.348,109.289 32.479,109.509 32.343 C 109.708 32.220,109.839 32.375,109.814 32.702 C 109.789 33.019,109.949 33.243,110.170 33.199 C 110.418 33.151,110.492 33.330,110.362 33.668 C 110.222 34.032,110.280 34.136,110.536 33.978 C 110.794 33.818,110.848 33.926,110.702 34.309 C 110.542 34.725,110.601 34.804,110.922 34.606 C 111.214 34.426,111.282 34.463,111.125 34.716 C 110.846 35.167,111.706 36.528,112.051 36.183 C 112.180 36.054,112.179 36.228,112.047 36.571 C 111.868 37.038,111.918 37.127,112.247 36.924 C 112.538 36.743,112.606 36.781,112.449 37.034 C 112.171 37.485,113.030 38.846,113.375 38.501 C 113.505 38.371,113.503 38.546,113.372 38.889 C 113.192 39.356,113.242 39.445,113.571 39.242 C 113.863 39.061,113.931 39.098,113.774 39.352 C 113.495 39.803,114.355 41.164,114.700 40.819 C 114.829 40.689,114.828 40.864,114.696 41.207 C 114.531 41.638,114.575 41.757,114.841 41.593 C 115.099 41.434,115.153 41.542,115.006 41.925 C 114.847 42.341,114.906 42.420,115.227 42.222 C 115.518 42.042,115.586 42.079,115.429 42.332 C 115.151 42.783,116.010 44.144,116.355 43.799 C 116.485 43.669,116.484 43.844,116.352 44.187 C 116.173 44.654,116.222 44.743,116.551 44.540 C 116.843 44.359,116.911 44.396,116.754 44.650 C 116.475 45.101,117.335 46.462,117.680 46.117 C 117.810 45.987,117.808 46.162,117.676 46.505 C 117.511 46.936,117.556 47.055,117.821 46.891 C 118.079 46.732,118.133 46.840,117.986 47.223 C 117.827 47.639,117.886 47.718,118.207 47.520 C 118.498 47.340,118.566 47.377,118.409 47.630 C 118.131 48.081,118.990 49.442,119.335 49.097 C 119.465 48.968,119.464 49.142,119.332 49.485 C 119.167 49.916,119.211 50.035,119.476 49.872 C 119.735 49.712,119.789 49.820,119.642 50.203 C 119.482 50.619,119.541 50.698,119.862 50.500 C 120.154 50.320,120.222 50.357,120.065 50.611 C 119.787 51.061,120.646 52.422,120.991 52.078 C 121.121 51.948,121.119 52.122,120.988 52.465 C 120.822 52.896,120.867 53.016,121.132 52.852 C 121.391 52.692,121.444 52.800,121.298 53.183 C 121.160 53.540,121.209 53.671,121.430 53.535 C 121.629 53.412,121.760 53.567,121.734 53.894 C 121.709 54.211,121.870 54.435,122.091 54.391 C 122.339 54.343,122.412 54.522,122.283 54.860 C 122.152 55.200,122.205 55.325,122.423 55.190 C 122.622 55.067,122.753 55.222,122.728 55.550 C 122.703 55.867,122.863 56.090,123.084 56.047 C 123.332 55.998,123.406 56.178,123.276 56.515 C 123.124 56.912,123.187 56.988,123.505 56.791 C 123.788 56.616,123.864 56.649,123.719 56.883 C 123.447 57.323,124.629 59.366,124.964 59.032 C 125.094 58.902,125.093 59.076,124.961 59.419 C 124.796 59.850,124.840 59.969,125.105 59.805 C 125.364 59.646,125.418 59.754,125.271 60.136 C 125.134 60.494,125.183 60.624,125.403 60.488 C 125.602 60.365,125.733 60.520,125.708 60.848 C 125.683 61.165,125.843 61.388,126.064 61.345 C 126.312 61.296,126.386 61.476,126.256 61.813 C 126.116 62.178,126.174 62.281,126.430 62.123 C 126.689 61.963,126.743 62.071,126.596 62.454 C 126.436 62.870,126.495 62.950,126.816 62.752 C 127.108 62.571,127.176 62.608,127.019 62.862 C 126.740 63.313,127.600 64.674,127.945 64.329 C 128.074 64.199,128.073 64.374,127.941 64.717 C 127.762 65.184,127.812 65.273,128.141 65.069 C 128.432 64.889,128.500 64.926,128.343 65.180 C 128.065 65.630,128.924 66.992,129.269 66.647 C 129.399 66.517,129.397 66.692,129.266 67.035 C 129.086 67.502,129.136 67.590,129.465 67.387 C 129.757 67.207,129.825 67.244,129.668 67.498 C 129.389 67.948,130.249 69.310,130.594 68.965 C 130.723 68.835,130.722 69.009,130.590 69.352 C 130.411 69.820,130.461 69.908,130.790 69.705 C 131.081 69.525,131.149 69.562,130.992 69.816 C 130.714 70.266,131.573 71.628,131.918 71.283 C 132.048 71.153,132.047 71.327,131.915 71.670 C 131.749 72.101,131.794 72.221,132.059 72.057 C 132.318 71.897,132.372 72.005,132.225 72.388 C 132.065 72.804,132.124 72.884,132.445 72.685 C 132.737 72.505,132.805 72.542,132.648 72.796 C 132.357 73.267,133.233 74.594,133.609 74.253 C 133.759 74.117,133.782 74.179,133.661 74.391 C 133.377 74.887,133.754 75.880,134.137 75.643 C 134.298 75.544,134.331 75.718,134.211 76.030 C 134.052 76.447,134.111 76.526,134.432 76.328 C 134.724 76.147,134.791 76.185,134.635 76.438 C 134.344 76.909,135.220 78.236,135.596 77.895 C 135.745 77.760,135.761 77.835,135.630 78.062 C 135.354 78.541,136.201 79.914,136.554 79.561 C 136.684 79.431,136.682 79.605,136.551 79.949 C 136.396 80.352,136.435 80.496,136.661 80.356 C 136.860 80.233,136.992 80.388,136.966 80.715 C 136.941 81.032,137.101 81.256,137.323 81.213 C 137.570 81.164,137.644 81.344,137.515 81.681 C 137.375 82.045,137.433 82.149,137.688 81.991 C 137.947 81.831,138.001 81.939,137.854 82.322 C 137.694 82.738,137.753 82.818,138.074 82.619 C 138.366 82.439,138.434 82.476,138.277 82.730 C 137.999 83.180,138.858 84.542,139.203 84.197 C 139.333 84.067,139.331 84.241,139.200 84.584 C 139.034 85.015,139.079 85.135,139.344 84.971 C 139.602 84.811,139.656 84.919,139.509 85.302 C 139.350 85.718,139.409 85.798,139.730 85.599 C 140.022 85.419,140.089 85.456,139.933 85.710 C 139.654 86.160,140.514 87.522,140.858 87.177 C 140.988 87.047,140.987 87.221,140.855 87.564 C 140.701 87.968,140.740 88.112,140.966 87.972 C 141.165 87.849,141.296 88.004,141.271 88.331 C 141.246 88.648,141.406 88.872,141.627 88.828 C 141.875 88.780,141.949 88.959,141.819 89.297 C 141.679 89.661,141.737 89.765,141.993 89.607 C 142.251 89.447,142.305 89.555,142.158 89.938 C 141.999 90.354,142.058 90.433,142.379 90.235 C 142.671 90.055,142.738 90.092,142.582 90.346 C 142.303 90.796,143.163 92.158,143.507 91.813 C 143.637 91.683,143.636 91.857,143.504 92.200 C 143.325 92.668,143.375 92.756,143.703 92.553 C 143.995 92.373,144.063 92.410,143.906 92.663 C 143.628 93.114,144.487 94.475,144.832 94.131 C 144.962 94.001,144.960 94.175,144.829 94.518 C 144.663 94.949,144.708 95.069,144.973 94.905 C 145.232 94.745,145.286 94.853,145.139 95.236 C 145.001 95.593,145.050 95.724,145.271 95.588 C 145.470 95.465,145.601 95.620,145.575 95.947 C 145.550 96.264,145.711 96.488,145.932 96.444 C 146.180 96.396,146.253 96.575,146.124 96.913 C 145.972 97.309,146.035 97.385,146.353 97.189 C 146.636 97.014,146.712 97.046,146.567 97.280 C 146.295 97.721,147.477 99.764,147.811 99.429 C 147.942 99.299,147.941 99.473,147.809 99.816 C 147.643 100.247,147.688 100.367,147.953 100.203 C 148.212 100.043,148.266 100.151,148.119 100.534 C 147.959 100.950,148.018 101.029,148.339 100.831 C 148.631 100.651,148.699 100.688,148.542 100.942 C 148.264 101.392,149.123 102.754,149.468 102.409 C 149.598 102.279,149.596 102.453,149.465 102.796 C 149.285 103.264,149.335 103.352,149.664 103.149 C 149.955 102.969,150.023 103.006,149.866 103.260 C 149.576 103.730,150.451 105.057,150.828 104.716 C 150.977 104.581,150.993 104.656,150.862 104.883 C 150.587 105.361,151.645 107.331,152.044 107.084 C 152.190 106.993,152.212 107.175,152.092 107.487 C 151.945 107.870,151.999 107.978,152.258 107.819 C 152.516 107.659,152.570 107.767,152.423 108.150 C 152.286 108.507,152.335 108.638,152.555 108.502 C 152.754 108.379,152.886 108.534,152.860 108.861 C 152.835 109.178,152.995 109.402,153.217 109.358 C 153.464 109.310,153.538 109.489,153.409 109.827 C 153.269 110.191,153.327 110.294,153.582 110.136 C 153.841 109.977,153.895 110.085,153.748 110.468 C 153.588 110.884,153.647 110.963,153.968 110.765 C 154.260 110.585,154.328 110.622,154.171 110.875 C 153.893 111.326,154.752 112.687,155.097 112.342 C 155.227 112.213,155.225 112.387,155.094 112.730 C 154.914 113.197,154.964 113.286,155.293 113.083 C 155.584 112.902,155.652 112.940,155.496 113.193 C 155.217 113.644,156.076 115.005,156.421 114.660 C 156.551 114.530,156.550 114.705,156.418 115.048 C 156.239 115.515,156.289 115.604,156.617 115.401 C 156.909 115.220,156.977 115.257,156.820 115.511 C 156.542 115.962,157.401 117.323,157.746 116.978 C 157.876 116.848,157.874 117.023,157.743 117.366 C 157.577 117.797,157.622 117.916,157.887 117.752 C 158.145 117.593,158.199 117.701,158.053 118.083 C 157.915 118.441,157.964 118.571,158.184 118.435 C 158.384 118.312,158.515 118.467,158.489 118.795 C 158.464 119.112,158.625 119.335,158.846 119.292 C 159.094 119.243,159.167 119.423,159.038 119.760 C 158.898 120.125,158.956 120.228,159.211 120.070 C 159.470 119.910,159.524 120.018,159.377 120.401 C 159.217 120.817,159.276 120.897,159.598 120.699 C 159.889 120.518,159.957 120.555,159.800 120.809 C 159.522 121.260,160.381 122.621,160.726 122.276 C 160.856 122.146,160.854 122.321,160.723 122.664 C 160.557 123.095,160.602 123.214,160.867 123.050 C 161.126 122.891,161.180 122.999,161.033 123.381 C 160.895 123.739,160.944 123.870,161.165 123.733 C 161.364 123.610,161.495 123.765,161.469 124.093 C 161.444 124.410,161.605 124.633,161.826 124.590 C 162.074 124.541,162.147 124.721,162.018 125.058 C 161.878 125.423,161.936 125.526,162.192 125.368 C 162.450 125.208,162.504 125.316,162.357 125.699 C 162.198 126.115,162.257 126.195,162.578 125.997 C 162.869 125.816,162.937 125.853,162.780 126.107 C 162.502 126.558,163.361 127.919,163.706 127.574 C 163.836 127.444,163.835 127.619,163.703 127.962 C 163.524 128.429,163.573 128.518,163.902 128.314 C 164.194 128.134,164.262 128.171,164.105 128.425 C 163.826 128.875,164.686 130.237,165.031 129.892 C 165.161 129.762,165.159 129.937,165.027 130.280 C 164.848 130.747,164.898 130.835,165.227 130.632 C 165.518 130.452,165.586 130.489,165.429 130.743 C 165.151 131.193,166.010 132.555,166.355 132.210 C 166.485 132.080,166.484 132.254,166.352 132.598 C 166.187 133.029,166.231 133.148,166.496 132.984 C 166.755 132.824,166.809 132.932,166.662 133.315 C 166.525 133.673,166.574 133.803,166.794 133.667 C 166.993 133.544,167.124 133.699,167.098 134.027 C 167.073 134.343,167.234 134.567,167.455 134.524 C 167.703 134.475,167.776 134.655,167.647 134.992 C 167.507 135.357,167.565 135.460,167.821 135.302 C 168.079 135.142,168.133 135.250,167.986 135.633 C 167.827 136.049,167.886 136.129,168.207 135.930 C 168.498 135.750,168.566 135.787,168.409 136.041 C 168.131 136.491,168.990 137.853,169.335 137.508 C 169.465 137.378,169.464 137.553,169.332 137.896 C 169.153 138.363,169.203 138.451,169.531 138.248 C 169.823 138.068,169.891 138.105,169.734 138.359 C 169.456 138.809,170.315 140.171,170.660 139.826 C 170.790 139.696,170.788 139.870,170.657 140.213 C 170.477 140.681,170.527 140.769,170.856 140.566 C 171.147 140.386,171.215 140.423,171.058 140.677 C 170.780 141.127,171.639 142.489,171.984 142.144 C 172.114 142.014,172.113 142.188,171.981 142.531 C 171.816 142.962,171.860 143.082,172.125 142.918 C 172.384 142.758,172.438 142.866,172.291 143.249 C 172.131 143.665,172.190 143.745,172.511 143.546 C 172.803 143.366,172.871 143.403,172.714 143.657 C 172.436 144.107,173.295 145.469,173.640 145.124 C 173.770 144.994,173.768 145.168,173.637 145.511 C 173.457 145.979,173.507 146.067,173.836 145.864 C 174.128 145.684,174.195 145.721,174.039 145.975 C 173.760 146.425,174.620 147.787,174.964 147.442 C 175.094 147.312,175.093 147.486,174.961 147.829 C 174.796 148.260,174.840 148.380,175.105 148.216 C 175.364 148.056,175.418 148.164,175.271 148.547 C 175.111 148.963,175.170 149.043,175.492 148.844 C 175.783 148.664,175.851 148.701,175.694 148.955 C 175.416 149.405,176.275 150.767,176.620 150.422 C 176.750 150.292,176.748 150.466,176.617 150.809 C 176.437 151.277,176.487 151.365,176.816 151.162 C 177.108 150.982,177.176 151.019,177.019 151.273 C 176.740 151.723,177.600 153.085,177.945 152.740 C 178.074 152.610,178.073 152.784,177.941 153.127 C 177.762 153.595,177.812 153.683,178.141 153.480 C 178.432 153.300,178.500 153.337,178.343 153.591 C 178.065 154.041,178.924 155.403,179.269 155.058 C 179.399 154.928,179.397 155.102,179.266 155.445 C 179.086 155.913,179.136 156.001,179.465 155.798 C 179.757 155.618,179.825 155.655,179.668 155.909 C 179.389 156.359,180.249 157.720,180.594 157.376 C 180.723 157.246,180.722 157.420,180.590 157.763 C 180.425 158.194,180.469 158.314,180.735 158.150 C 180.993 157.990,181.047 158.098,180.900 158.481 C 180.763 158.838,180.812 158.969,181.032 158.833 C 181.231 158.710,181.363 158.865,181.337 159.192 C 181.312 159.509,181.472 159.733,181.693 159.689 C 181.941 159.641,182.015 159.820,181.885 160.158 C 181.746 160.522,181.804 160.626,182.059 160.468 C 182.318 160.308,182.372 160.416,182.225 160.799 C 182.065 161.215,182.124 161.294,182.445 161.096 C 182.737 160.916,182.805 160.953,182.648 161.207 C 182.357 161.677,183.233 163.004,183.609 162.663 C 183.759 162.528,183.780 162.594,183.656 162.810 C 183.385 163.283,184.771 166.262,185.154 166.026 C 185.302 165.935,185.325 166.115,185.205 166.428 C 185.066 166.791,185.116 166.916,185.343 166.776 C 185.574 166.633,185.634 166.807,185.513 167.270 C 185.410 167.663,185.461 167.901,185.627 167.799 C 185.792 167.696,185.927 167.957,185.927 168.377 C 185.927 168.798,185.792 169.058,185.627 168.956 C 185.461 168.854,185.410 169.092,185.513 169.485 C 185.634 169.947,185.574 170.122,185.343 169.979 C 185.116 169.839,185.066 169.964,185.205 170.327 C 185.352 170.710,185.298 170.818,185.039 170.658 C 184.774 170.494,184.730 170.614,184.895 171.045 C 185.027 171.388,185.028 171.562,184.898 171.432 C 184.553 171.087,183.694 172.449,183.972 172.899 C 184.129 173.153,184.061 173.190,183.770 173.010 C 183.452 172.814,183.389 172.890,183.541 173.286 C 183.671 173.623,183.597 173.803,183.349 173.754 C 183.128 173.711,182.967 173.935,182.992 174.251 C 183.018 174.579,182.887 174.734,182.688 174.611 C 182.470 174.476,182.417 174.602,182.548 174.942 C 182.677 175.279,182.603 175.459,182.356 175.410 C 182.135 175.367,181.974 175.590,181.999 175.907 C 182.025 176.235,181.893 176.390,181.694 176.267 C 181.468 176.127,181.429 176.271,181.584 176.674 C 181.715 177.017,181.717 177.191,181.587 177.062 C 181.242 176.717,180.383 178.078,180.661 178.529 C 180.818 178.782,180.750 178.819,180.458 178.639 C 180.130 178.436,180.080 178.524,180.259 178.992 C 180.391 179.335,180.392 179.509,180.262 179.379 C 179.918 179.035,179.058 180.396,179.337 180.846 C 179.493 181.100,179.426 181.137,179.134 180.957 C 178.816 180.761,178.753 180.837,178.905 181.233 C 179.035 181.570,178.961 181.750,178.713 181.701 C 178.492 181.658,178.332 181.882,178.357 182.198 C 178.382 182.526,178.251 182.681,178.052 182.558 C 177.826 182.418,177.787 182.562,177.941 182.965 C 178.073 183.308,178.074 183.483,177.945 183.353 C 177.600 183.008,176.740 184.370,177.019 184.820 C 177.176 185.074,177.108 185.111,176.816 184.931 C 176.498 184.734,176.435 184.810,176.587 185.207 C 176.717 185.544,176.643 185.723,176.395 185.675 C 176.174 185.631,176.014 185.855,176.039 186.172 C 176.065 186.499,175.933 186.655,175.734 186.532 C 175.517 186.397,175.464 186.522,175.594 186.862 C 175.723 187.200,175.650 187.379,175.402 187.330 C 175.181 187.287,175.020 187.511,175.045 187.828 C 175.071 188.155,174.940 188.310,174.741 188.187 C 174.514 188.047,174.475 188.191,174.630 188.595 C 174.762 188.938,174.763 189.112,174.633 188.982 C 174.280 188.629,173.434 190.002,173.709 190.481 C 173.840 190.708,173.825 190.783,173.676 190.648 C 173.299 190.307,172.423 191.634,172.714 192.105 C 172.871 192.358,172.803 192.396,172.511 192.215 C 172.183 192.012,172.133 192.101,172.312 192.568 C 172.444 192.911,172.445 193.085,172.315 192.956 C 171.971 192.611,171.111 193.972,171.390 194.423 C 171.546 194.676,171.479 194.713,171.187 194.533 C 170.869 194.337,170.806 194.413,170.958 194.809 C 171.088 195.147,171.014 195.326,170.766 195.277 C 170.545 195.234,170.385 195.458,170.410 195.775 C 170.435 196.102,170.304 196.257,170.105 196.134 C 169.879 195.994,169.840 196.138,169.994 196.542 C 170.126 196.885,170.127 197.059,169.998 196.929 C 169.653 196.584,168.793 197.946,169.072 198.396 C 169.229 198.650,169.161 198.687,168.869 198.507 C 168.551 198.310,168.488 198.386,168.640 198.783 C 168.770 199.120,168.696 199.300,168.448 199.251 C 168.227 199.208,168.067 199.431,168.092 199.748 C 168.118 200.076,167.986 200.231,167.787 200.108 C 167.561 199.968,167.522 200.112,167.676 200.515 C 167.808 200.858,167.810 201.032,167.680 200.903 C 167.327 200.550,166.480 201.923,166.756 202.401 C 166.887 202.629,166.871 202.704,166.722 202.568 C 166.346 202.227,165.470 203.555,165.760 204.025 C 165.917 204.279,165.849 204.316,165.558 204.136 C 165.229 203.933,165.179 204.021,165.359 204.489 C 165.490 204.832,165.492 205.006,165.362 204.876 C 165.009 204.523,164.162 205.896,164.438 206.375 C 164.569 206.602,164.553 206.677,164.404 206.542 C 164.028 206.201,163.152 207.528,163.443 207.999 C 163.599 208.253,163.531 208.290,163.240 208.109 C 162.922 207.913,162.859 207.989,163.011 208.385 C 163.141 208.723,163.067 208.902,162.819 208.854 C 162.598 208.810,162.438 209.034,162.463 209.351 C 162.488 209.678,162.357 209.833,162.158 209.710 C 161.940 209.576,161.887 209.701,162.018 210.041 C 162.147 210.378,162.074 210.558,161.826 210.509 C 161.605 210.466,161.444 210.690,161.469 211.006 C 161.495 211.334,161.364 211.489,161.165 211.366 C 160.938 211.226,160.899 211.370,161.054 211.773 C 161.186 212.116,161.187 212.291,161.057 212.161 C 160.712 211.816,159.853 213.178,160.131 213.628 C 160.288 213.882,160.220 213.919,159.929 213.739 C 159.611 213.542,159.548 213.618,159.700 214.015 C 159.829 214.352,159.756 214.531,159.508 214.483 C 159.287 214.439,159.126 214.663,159.151 214.980 C 159.177 215.307,159.046 215.462,158.847 215.339 C 158.620 215.200,158.581 215.344,158.736 215.747 C 158.868 216.090,158.869 216.264,158.739 216.134 C 158.394 215.789,157.535 217.151,157.813 217.601 C 157.970 217.855,157.902 217.892,157.611 217.712 C 157.293 217.516,157.230 217.592,157.382 217.988 C 157.512 218.325,157.438 218.505,157.190 218.456 C 156.969 218.413,156.809 218.637,156.833 218.953 C 156.859 219.281,156.728 219.436,156.529 219.313 C 156.303 219.173,156.263 219.317,156.418 219.720 C 156.550 220.063,156.551 220.238,156.421 220.108 C 156.068 219.755,155.222 221.128,155.497 221.607 C 155.628 221.834,155.613 221.909,155.464 221.774 C 155.087 221.433,154.211 222.760,154.502 223.231 C 154.659 223.484,154.591 223.521,154.300 223.341 C 153.982 223.145,153.919 223.221,154.071 223.617 C 154.200 223.954,154.127 224.134,153.879 224.085 C 153.658 224.042,153.497 224.266,153.522 224.583 C 153.548 224.910,153.417 225.065,153.218 224.942 C 152.991 224.802,152.952 224.946,153.107 225.349 C 153.239 225.693,153.240 225.867,153.110 225.737 C 152.765 225.392,151.906 226.754,152.184 227.204 C 152.341 227.458,152.273 227.495,151.982 227.315 C 151.664 227.118,151.601 227.194,151.753 227.591 C 151.882 227.928,151.809 228.108,151.561 228.059 C 151.340 228.016,151.179 228.239,151.204 228.556 C 151.230 228.884,151.099 229.039,150.900 228.916 C 150.673 228.776,150.634 228.920,150.789 229.323 C 150.921 229.666,150.922 229.840,150.792 229.711 C 150.439 229.358,149.593 230.730,149.868 231.209 C 149.999 231.437,149.984 231.512,149.834 231.376 C 149.458 231.035,148.582 232.363,148.873 232.833 C 149.030 233.087,148.962 233.124,148.670 232.944 C 148.353 232.747,148.290 232.823,148.442 233.220 C 148.571 233.557,148.498 233.737,148.250 233.688 C 148.029 233.645,147.868 233.868,147.893 234.185 C 147.919 234.513,147.788 234.668,147.588 234.545 C 147.362 234.405,147.323 234.549,147.478 234.952 C 147.609 235.295,147.611 235.470,147.481 235.340 C 147.136 234.995,146.277 236.356,146.555 236.807 C 146.712 237.060,146.644 237.098,146.353 236.917 C 146.024 236.714,145.974 236.803,146.153 237.270 C 146.285 237.613,146.286 237.787,146.156 237.658 C 145.812 237.313,144.952 238.674,145.231 239.125 C 145.387 239.378,145.320 239.415,145.028 239.235 C 144.710 239.039,144.647 239.115,144.799 239.511 C 144.929 239.849,144.855 240.028,144.607 239.979 C 144.386 239.936,144.226 240.160,144.251 240.477 C 144.277 240.804,144.145 240.959,143.946 240.836 C 143.720 240.696,143.681 240.840,143.835 241.244 C 143.967 241.587,143.968 241.761,143.839 241.631 C 143.486 241.278,142.639 242.651,142.915 243.130 C 143.046 243.357,143.030 243.432,142.881 243.297 C 142.496 242.948,141.634 244.286,141.921 244.785 C 142.052 245.013,142.037 245.088,141.887 244.952 C 141.511 244.611,140.635 245.939,140.926 246.409 C 141.083 246.663,141.015 246.700,140.723 246.520 C 140.406 246.324,140.343 246.400,140.495 246.796 C 140.624 247.133,140.551 247.313,140.303 247.264 C 140.082 247.221,139.921 247.445,139.946 247.761 C 139.972 248.089,139.840 248.244,139.641 248.121 C 139.421 247.985,139.372 248.115,139.509 248.473 C 139.656 248.856,139.602 248.964,139.344 248.804 C 139.088 248.646,139.030 248.749,139.170 249.114 C 139.300 249.451,139.226 249.631,138.978 249.582 C 138.757 249.539,138.597 249.762,138.622 250.079 C 138.647 250.407,138.516 250.562,138.317 250.439 C 138.091 250.299,138.052 250.443,138.206 250.846 C 138.338 251.189,138.339 251.364,138.209 251.234 C 137.865 250.889,137.005 252.250,137.284 252.701 C 137.440 252.955,137.373 252.992,137.081 252.811 C 136.752 252.608,136.702 252.697,136.882 253.164 C 137.013 253.507,137.015 253.681,136.885 253.552 C 136.532 253.199,135.686 254.572,135.961 255.050 C 136.092 255.278,136.077 255.353,135.927 255.217 C 135.551 254.876,134.675 256.204,134.966 256.674 C 135.123 256.928,135.055 256.965,134.763 256.785 C 134.445 256.589,134.382 256.665,134.534 257.061 C 134.664 257.398,134.590 257.578,134.342 257.529 C 134.121 257.486,133.963 257.721,133.990 258.052 C 134.017 258.383,133.956 258.570,133.854 258.468 C 133.544 258.158,132.726 259.576,132.979 259.986 C 133.136 260.239,133.068 260.276,132.776 260.096 C 132.448 259.893,132.398 259.981,132.577 260.449 C 132.709 260.792,132.710 260.966,132.580 260.836 C 132.227 260.483,131.381 261.856,131.656 262.335 C 131.787 262.562,131.772 262.638,131.623 262.502 C 131.246 262.161,130.370 263.488,130.661 263.959 C 130.818 264.213,130.750 264.250,130.458 264.070 C 130.141 263.873,130.078 263.949,130.230 264.346 C 130.359 264.683,130.286 264.862,130.038 264.814 C 129.817 264.771,129.656 264.994,129.681 265.311 C 129.707 265.639,129.576 265.794,129.377 265.671 C 129.150 265.531,129.111 265.675,129.266 266.078 C 129.397 266.421,129.399 266.595,129.269 266.466 C 128.924 266.121,128.065 267.482,128.343 267.933 C 128.500 268.186,128.432 268.223,128.141 268.043 C 127.823 267.847,127.760 267.923,127.912 268.319 C 128.041 268.656,127.968 268.836,127.720 268.787 C 127.499 268.744,127.338 268.968,127.363 269.285 C 127.389 269.612,127.258 269.767,127.059 269.644 C 126.832 269.504,126.793 269.648,126.948 270.051 C 127.080 270.395,127.081 270.569,126.951 270.439 C 126.606 270.094,125.747 271.456,126.025 271.906 C 126.182 272.160,126.114 272.197,125.823 272.017 C 125.505 271.820,125.442 271.896,125.594 272.293 C 125.723 272.630,125.650 272.810,125.402 272.761 C 125.181 272.718,125.020 272.941,125.045 273.258 C 125.071 273.586,124.940 273.741,124.741 273.618 C 124.514 273.478,124.475 273.622,124.630 274.025 C 124.762 274.368,124.763 274.542,124.633 274.413 C 124.288 274.068,123.429 275.429,123.707 275.880 C 123.864 276.133,123.796 276.170,123.505 275.990 C 123.187 275.794,123.124 275.870,123.276 276.266 C 123.406 276.603,123.332 276.783,123.084 276.734 C 122.863 276.691,122.703 276.915,122.728 277.232 C 122.753 277.559,122.622 277.714,122.423 277.591 C 122.197 277.451,122.157 277.595,122.312 277.999 C 122.444 278.342,122.445 278.516,122.315 278.386 C 121.971 278.041,121.111 279.403,121.390 279.853 C 121.546 280.107,121.479 280.144,121.187 279.964 C 120.869 279.767,120.806 279.843,120.958 280.240 C 121.088 280.577,121.014 280.757,120.766 280.708 C 120.545 280.665,120.385 280.888,120.410 281.205 C 120.435 281.533,120.304 281.688,120.105 281.565 C 119.879 281.425,119.840 281.569,119.994 281.972 C 120.126 282.315,120.127 282.489,119.998 282.360 C 119.653 282.015,118.793 283.376,119.072 283.827 C 119.229 284.080,119.161 284.117,118.869 283.937 C 118.551 283.741,118.488 283.817,118.640 284.213 C 118.770 284.551,118.696 284.730,118.448 284.681 C 118.227 284.638,118.067 284.862,118.092 285.179 C 118.118 285.506,117.986 285.661,117.787 285.538 C 117.561 285.398,117.522 285.542,117.676 285.946 C 117.808 286.289,117.810 286.463,117.680 286.333 C 117.335 285.988,116.475 287.350,116.754 287.800 C 116.911 288.054,116.843 288.091,116.551 287.911 C 116.233 287.714,116.170 287.790,116.323 288.187 C 116.452 288.524,116.378 288.704,116.130 288.655 C 115.909 288.612,115.749 288.835,115.774 289.152 C 115.800 289.480,115.668 289.635,115.469 289.512 C 115.243 289.372,115.204 289.516,115.359 289.919 C 115.490 290.262,115.492 290.436,115.362 290.307 C 115.009 289.954,114.162 291.327,114.438 291.805 C 114.569 292.033,114.553 292.108,114.404 291.972 C 114.028 291.631,113.152 292.959,113.443 293.429 C 113.599 293.683,113.531 293.720,113.240 293.540 C 112.911 293.337,112.861 293.425,113.041 293.893 C 113.172 294.236,113.174 294.410,113.044 294.280 C 112.699 293.935,111.840 295.297,112.118 295.747 C 112.275 296.001,112.207 296.038,111.915 295.858 C 111.598 295.661,111.535 295.737,111.687 296.134 C 111.816 296.471,111.743 296.651,111.495 296.602 C 111.274 296.559,111.113 296.782,111.138 297.099 C 111.164 297.427,111.033 297.582,110.833 297.459 C 110.607 297.319,110.568 297.463,110.723 297.866 C 110.854 298.209,110.856 298.383,110.726 298.254 C 110.373 297.901,109.527 299.274,109.802 299.752 C 109.933 299.980,109.918 300.055,109.768 299.919 C 109.392 299.578,108.516 300.906,108.807 301.376 C 108.964 301.630,108.896 301.667,108.604 301.487 C 108.286 301.291,108.223 301.366,108.376 301.763 C 108.505 302.100,108.431 302.280,108.183 302.231 C 107.962 302.188,107.802 302.411,107.827 302.728 C 107.853 303.056,107.721 303.211,107.522 303.088 C 107.296 302.948,107.257 303.092,107.412 303.495 C 107.543 303.838,107.545 304.013,107.415 303.883 C 107.070 303.538,106.211 304.899,106.489 305.350 C 106.646 305.604,106.578 305.641,106.286 305.460 C 105.968 305.264,105.906 305.340,106.058 305.736 C 106.187 306.074,106.113 306.253,105.866 306.205 C 105.644 306.161,105.484 306.385,105.509 306.702 C 105.535 307.029,105.403 307.184,105.204 307.061 C 104.978 306.921,104.939 307.065,105.094 307.469 C 105.225 307.812,105.227 307.986,105.097 307.856 C 104.752 307.511,103.893 308.873,104.171 309.323 C 104.328 309.577,104.260 309.614,103.968 309.434 C 103.647 309.235,103.588 309.315,103.748 309.731 C 103.868 310.044,103.846 310.225,103.699 310.135 C 103.300 309.888,102.243 311.857,102.517 312.335 C 102.648 312.562,102.633 312.638,102.483 312.502 C 102.107 312.161,101.231 313.488,101.522 313.959 C 101.679 314.213,101.611 314.250,101.319 314.070 C 100.998 313.871,100.939 313.951,101.099 314.367 C 101.228 314.704,101.184 314.853,100.990 314.733 C 100.608 314.497,100.610 314.490,100.522 316.952 C 100.485 317.989,100.559 318.772,100.687 318.694 C 100.814 318.615,100.898 318.809,100.873 319.126 C 100.848 319.445,101.024 319.661,101.266 319.611 C 101.508 319.561,101.624 319.651,101.525 319.811 C 100.623 321.270,95.919 321.199,193.190 321.196 L 284.228 321.193 285.004 320.464 C 285.432 320.062,285.708 319.542,285.618 319.308 C 285.528 319.074,285.635 318.918,285.856 318.961 C 286.077 319.004,286.236 318.769,286.209 318.438 C 286.181 318.107,286.242 317.920,286.344 318.022 C 286.634 318.312,287.481 316.928,287.246 316.548 C 287.131 316.361,287.234 316.250,287.475 316.300 C 287.724 316.351,287.892 316.131,287.864 315.789 C 287.837 315.458,287.898 315.271,288.000 315.373 C 288.318 315.691,289.124 314.260,288.873 313.824 C 288.743 313.597,288.758 313.521,288.907 313.657 C 289.292 314.005,290.154 312.668,289.867 312.168 C 289.736 311.941,289.751 311.866,289.901 312.001 C 290.285 312.350,291.148 311.012,290.860 310.513 C 290.729 310.285,290.745 310.210,290.894 310.346 C 291.279 310.694,292.141 309.357,291.854 308.857 C 291.723 308.630,291.738 308.555,291.887 308.690 C 292.264 309.031,293.140 307.704,292.849 307.233 C 292.692 306.979,292.760 306.942,293.051 307.122 C 293.369 307.319,293.432 307.243,293.280 306.846 C 293.151 306.509,293.224 306.330,293.472 306.378 C 293.693 306.421,293.854 306.198,293.829 305.881 C 293.803 305.554,293.934 305.398,294.133 305.521 C 294.351 305.656,294.404 305.531,294.273 305.191 C 294.144 304.853,294.218 304.674,294.466 304.723 C 294.687 304.766,294.847 304.542,294.822 304.225 C 294.796 303.898,294.928 303.743,295.127 303.866 C 295.353 304.006,295.392 303.862,295.237 303.458 C 295.106 303.115,295.104 302.941,295.234 303.071 C 295.579 303.416,296.438 302.054,296.160 301.604 C 296.003 301.350,296.071 301.313,296.363 301.493 C 296.681 301.690,296.743 301.614,296.591 301.217 C 296.462 300.880,296.536 300.700,296.783 300.749 C 297.005 300.792,297.165 300.569,297.140 300.252 C 297.114 299.924,297.246 299.769,297.445 299.892 C 297.671 300.032,297.710 299.888,297.555 299.485 C 297.424 299.142,297.422 298.968,297.552 299.097 C 297.905 299.450,298.751 298.077,298.476 297.599 C 298.345 297.371,298.360 297.296,298.510 297.432 C 298.886 297.773,299.762 296.445,299.471 295.975 C 299.314 295.721,299.382 295.684,299.674 295.864 C 299.992 296.060,300.055 295.984,299.903 295.588 C 299.773 295.251,299.847 295.071,300.095 295.120 C 300.316 295.163,300.476 294.940,300.451 294.623 C 300.425 294.295,300.557 294.140,300.756 294.263 C 300.974 294.398,301.027 294.273,300.896 293.932 C 300.767 293.595,300.840 293.416,301.088 293.464 C 301.309 293.508,301.470 293.284,301.445 292.967 C 301.419 292.640,301.550 292.485,301.749 292.608 C 301.976 292.747,302.015 292.603,301.860 292.200 C 301.728 291.857,301.727 291.683,301.857 291.813 C 302.210 292.166,303.056 290.793,302.781 290.314 C 302.650 290.087,302.665 290.011,302.815 290.147 C 303.191 290.488,304.067 289.161,303.776 288.690 C 303.619 288.436,303.687 288.399,303.979 288.579 C 304.296 288.776,304.359 288.700,304.207 288.303 C 304.078 287.966,304.151 287.787,304.399 287.835 C 304.620 287.878,304.781 287.655,304.756 287.338 C 304.730 287.010,304.861 286.855,305.061 286.978 C 305.278 287.113,305.331 286.988,305.201 286.648 C 305.071 286.310,305.145 286.131,305.393 286.179 C 305.614 286.223,305.774 285.999,305.749 285.682 C 305.723 285.355,305.855 285.200,306.054 285.323 C 306.280 285.463,306.319 285.319,306.165 284.915 C 306.033 284.572,306.032 284.398,306.161 284.528 C 306.514 284.881,307.361 283.508,307.085 283.029 C 306.954 282.802,306.970 282.727,307.119 282.862 C 307.504 283.211,308.366 281.873,308.079 281.374 C 307.948 281.146,307.963 281.071,308.113 281.207 C 308.489 281.548,309.365 280.220,309.074 279.750 C 308.917 279.496,308.985 279.459,309.277 279.639 C 309.594 279.835,309.657 279.759,309.505 279.363 C 309.376 279.026,309.449 278.846,309.697 278.895 C 309.918 278.938,310.079 278.714,310.054 278.398 C 310.028 278.070,310.160 277.915,310.359 278.038 C 310.576 278.173,310.629 278.047,310.499 277.707 C 310.369 277.370,310.443 277.190,310.691 277.239 C 310.912 277.282,311.072 277.059,311.047 276.742 C 311.022 276.414,311.153 276.259,311.352 276.382 C 311.578 276.522,311.617 276.378,311.463 275.975 C 311.331 275.632,311.330 275.458,311.459 275.587 C 311.812 275.940,312.659 274.568,312.383 274.089 C 312.253 273.861,312.268 273.786,312.417 273.922 C 312.794 274.263,313.669 272.935,313.379 272.465 C 313.222 272.211,313.290 272.174,313.581 272.354 C 313.899 272.551,313.962 272.475,313.810 272.078 C 313.680 271.741,313.754 271.561,314.002 271.610 C 314.223 271.653,314.384 271.430,314.359 271.113 C 314.333 270.785,314.464 270.630,314.663 270.753 C 314.881 270.888,314.934 270.763,314.803 270.423 C 314.674 270.085,314.748 269.906,314.995 269.954 C 315.216 269.998,315.377 269.774,315.352 269.457 C 315.326 269.130,315.458 268.975,315.657 269.098 C 315.883 269.237,315.922 269.094,315.767 268.690 C 315.636 268.347,315.634 268.173,315.764 268.303 C 316.117 268.656,316.963 267.283,316.688 266.804 C 316.557 266.577,316.572 266.502,316.722 266.637 C 317.098 266.978,317.974 265.651,317.683 265.180 C 317.526 264.926,317.594 264.889,317.886 265.069 C 318.204 265.266,318.267 265.190,318.115 264.793 C 317.985 264.456,318.059 264.277,318.307 264.325 C 318.528 264.369,318.688 264.145,318.663 263.828 C 318.637 263.501,318.769 263.345,318.968 263.468 C 319.185 263.603,319.238 263.478,319.108 263.138 C 318.978 262.800,319.052 262.621,319.300 262.670 C 319.521 262.713,319.682 262.489,319.657 262.172 C 319.631 261.845,319.762 261.690,319.961 261.813 C 320.188 261.953,320.227 261.809,320.072 261.405 C 319.940 261.062,319.939 260.888,320.069 261.018 C 320.422 261.371,321.268 259.998,320.993 259.519 C 320.862 259.292,320.877 259.217,321.026 259.352 C 321.403 259.693,322.279 258.366,321.988 257.895 C 321.831 257.642,321.899 257.604,322.191 257.785 C 322.508 257.981,322.571 257.905,322.419 257.509 C 322.290 257.171,322.363 256.992,322.611 257.040 C 322.832 257.084,322.993 256.860,322.968 256.543 C 322.942 256.216,323.073 256.061,323.272 256.184 C 323.490 256.318,323.543 256.193,323.413 255.853 C 323.283 255.516,323.357 255.336,323.605 255.385 C 323.826 255.428,323.986 255.204,323.961 254.888 C 323.935 254.560,324.067 254.405,324.266 254.528 C 324.483 254.663,324.536 254.537,324.406 254.197 C 324.277 253.860,324.350 253.681,324.598 253.729 C 324.819 253.772,324.980 253.549,324.955 253.232 C 324.929 252.905,325.060 252.749,325.259 252.872 C 325.486 253.012,325.525 252.868,325.370 252.465 C 325.238 252.122,325.237 251.948,325.367 252.078 C 325.712 252.422,326.571 251.061,326.293 250.611 C 326.136 250.357,326.204 250.320,326.495 250.500 C 326.813 250.696,326.876 250.620,326.724 250.224 C 326.594 249.887,326.668 249.707,326.916 249.756 C 327.137 249.799,327.297 249.575,327.272 249.259 C 327.247 248.931,327.378 248.776,327.577 248.899 C 327.795 249.033,327.848 248.908,327.717 248.568 C 327.588 248.231,327.661 248.051,327.909 248.100 C 328.130 248.143,328.291 247.920,328.266 247.603 C 328.240 247.275,328.371 247.120,328.570 247.243 C 328.797 247.383,328.836 247.239,328.681 246.836 C 328.550 246.493,328.548 246.319,328.678 246.448 C 329.031 246.801,329.877 245.428,329.602 244.950 C 329.471 244.722,329.486 244.647,329.636 244.783 C 330.012 245.124,330.888 243.796,330.597 243.326 C 330.440 243.072,330.508 243.035,330.800 243.215 C 331.118 243.411,331.181 243.335,331.028 242.939 C 330.899 242.602,330.973 242.422,331.221 242.471 C 331.442 242.514,331.602 242.291,331.577 241.974 C 331.551 241.646,331.683 241.491,331.882 241.614 C 332.099 241.749,332.152 241.624,332.022 241.283 C 331.892 240.946,331.966 240.767,332.214 240.815 C 332.435 240.859,332.595 240.635,332.570 240.318 C 332.545 239.991,332.676 239.836,332.875 239.959 C 333.101 240.098,333.141 239.954,332.986 239.551 C 332.854 239.208,332.853 239.034,332.983 239.164 C 333.336 239.517,334.182 238.144,333.906 237.665 C 333.776 237.438,333.791 237.362,333.940 237.498 C 334.317 237.839,335.193 236.512,334.902 236.041 C 334.745 235.787,334.813 235.750,335.104 235.930 C 335.422 236.127,335.485 236.051,335.333 235.654 C 335.204 235.317,335.277 235.138,335.525 235.186 C 335.746 235.229,335.907 235.006,335.882 234.689 C 335.856 234.361,335.987 234.206,336.186 234.329 C 336.404 234.464,336.457 234.339,336.326 233.999 C 336.197 233.661,336.271 233.482,336.519 233.530 C 336.740 233.574,336.900 233.350,336.875 233.033 C 336.849 232.706,336.981 232.551,337.180 232.674 C 337.406 232.814,337.445 232.670,337.290 232.266 C 337.159 231.923,337.157 231.749,337.287 231.879 C 337.640 232.232,338.487 230.859,338.211 230.380 C 338.080 230.153,338.096 230.078,338.245 230.213 C 338.621 230.554,339.497 229.227,339.206 228.756 C 339.050 228.502,339.118 228.465,339.409 228.646 C 339.727 228.842,339.790 228.766,339.638 228.370 C 339.508 228.032,339.582 227.853,339.830 227.901 C 340.051 227.945,340.211 227.721,340.186 227.404 C 340.161 227.077,340.292 226.922,340.491 227.045 C 340.717 227.185,340.756 227.041,340.602 226.637 C 340.470 226.294,340.469 226.120,340.598 226.250 C 340.951 226.603,341.798 225.230,341.522 224.751 C 341.392 224.524,341.407 224.449,341.556 224.584 C 341.933 224.925,342.809 223.598,342.518 223.127 C 342.361 222.873,342.429 222.836,342.720 223.016 C 343.038 223.213,343.101 223.137,342.949 222.740 C 342.820 222.403,342.893 222.224,343.141 222.272 C 343.362 222.316,343.523 222.092,343.498 221.775 C 343.472 221.448,343.603 221.292,343.802 221.415 C 344.020 221.550,344.073 221.425,343.942 221.085 C 343.813 220.747,343.887 220.568,344.134 220.617 C 344.356 220.660,344.516 220.436,344.491 220.119 C 344.465 219.792,344.597 219.637,344.796 219.760 C 345.022 219.900,345.061 219.756,344.906 219.352 C 344.775 219.009,344.773 218.835,344.903 218.965 C 345.248 219.310,346.107 217.948,345.829 217.498 C 345.672 217.244,345.740 217.207,346.032 217.387 C 346.349 217.584,346.412 217.508,346.260 217.111 C 346.131 216.774,346.204 216.594,346.452 216.643 C 346.673 216.686,346.834 216.463,346.809 216.146 C 346.783 215.818,346.914 215.663,347.114 215.786 C 347.331 215.921,347.384 215.796,347.254 215.456 C 347.124 215.118,347.198 214.939,347.446 214.987 C 347.667 215.031,347.827 214.807,347.802 214.490 C 347.776 214.163,347.908 214.008,348.107 214.131 C 348.333 214.271,348.372 214.127,348.218 213.723 C 348.086 213.380,348.085 213.206,348.214 213.336 C 348.567 213.689,349.414 212.316,349.138 211.837 C 349.007 211.610,349.023 211.535,349.172 211.670 C 349.549 212.011,350.424 210.684,350.134 210.213 C 349.977 209.959,350.045 209.922,350.336 210.102 C 350.654 210.299,350.717 210.223,350.565 209.827 C 350.435 209.489,350.509 209.310,350.757 209.358 C 350.978 209.402,351.139 209.178,351.114 208.861 C 351.088 208.534,351.219 208.379,351.418 208.502 C 351.644 208.641,351.684 208.497,351.529 208.094 C 351.397 207.751,351.396 207.577,351.526 207.707 C 351.879 208.060,352.725 206.687,352.450 206.208 C 352.319 205.981,352.334 205.906,352.483 206.041 C 352.860 206.382,353.736 205.055,353.445 204.584 C 353.288 204.330,353.356 204.293,353.647 204.473 C 353.965 204.670,354.028 204.594,353.876 204.197 C 353.747 203.860,353.820 203.681,354.068 203.729 C 354.289 203.772,354.450 203.549,354.425 203.232 C 354.399 202.905,354.530 202.749,354.729 202.872 C 354.947 203.007,355.000 202.882,354.870 202.542 C 354.740 202.204,354.814 202.025,355.062 202.074 C 355.283 202.117,355.443 201.893,355.418 201.576 C 355.392 201.249,355.524 201.094,355.723 201.217 C 355.949 201.357,355.988 201.213,355.833 200.809 C 355.702 200.466,355.700 200.292,355.830 200.422 C 356.175 200.767,357.034 199.405,356.756 198.955 C 356.599 198.701,356.667 198.664,356.959 198.844 C 357.277 199.041,357.340 198.965,357.187 198.568 C 357.058 198.231,357.132 198.051,357.379 198.100 C 357.601 198.143,357.761 197.920,357.736 197.603 C 357.710 197.275,357.842 197.120,358.041 197.243 C 358.258 197.378,358.311 197.253,358.181 196.913 C 358.051 196.575,358.125 196.396,358.373 196.444 C 358.594 196.488,358.754 196.264,358.729 195.947 C 358.704 195.620,358.835 195.465,359.034 195.588 C 359.260 195.728,359.299 195.584,359.145 195.180 C 359.013 194.837,359.012 194.663,359.142 194.793 C 359.495 195.146,360.341 193.773,360.065 193.294 C 359.935 193.067,359.950 192.992,360.099 193.127 C 360.476 193.468,361.352 192.141,361.061 191.670 C 360.904 191.416,360.972 191.379,361.263 191.559 C 361.581 191.756,361.644 191.680,361.492 191.283 C 361.363 190.946,361.436 190.767,361.684 190.815 C 361.905 190.859,362.066 190.635,362.041 190.318 C 362.015 189.991,362.146 189.836,362.345 189.959 C 362.563 190.093,362.616 189.968,362.485 189.628 C 362.356 189.291,362.430 189.111,362.677 189.160 C 362.899 189.203,363.059 188.979,363.034 188.663 C 363.008 188.335,363.140 188.180,363.339 188.303 C 363.565 188.443,363.604 188.299,363.449 187.896 C 363.318 187.553,363.316 187.378,363.446 187.508 C 363.799 187.861,364.646 186.488,364.370 186.009 C 364.239 185.782,364.255 185.707,364.404 185.842 C 364.780 186.183,365.656 184.856,365.365 184.385 C 365.209 184.132,365.276 184.094,365.568 184.275 C 365.886 184.471,365.949 184.395,365.797 183.999 C 365.667 183.661,365.741 183.482,365.989 183.530 C 366.210 183.574,366.370 183.350,366.345 183.033 C 366.320 182.706,366.451 182.551,366.650 182.674 C 366.876 182.814,366.915 182.670,366.761 182.266 C 366.629 181.923,366.628 181.749,366.757 181.879 C 367.110 182.232,367.957 180.859,367.681 180.380 C 367.551 180.153,367.566 180.078,367.715 180.213 C 368.092 180.554,368.967 179.227,368.677 178.756 C 368.520 178.502,368.588 178.465,368.879 178.646 C 369.197 178.842,369.260 178.766,369.108 178.370 C 368.978 178.032,369.052 177.853,369.300 177.901 C 369.521 177.945,369.682 177.721,369.657 177.404 C 369.631 177.077,369.762 176.922,369.961 177.045 C 370.179 177.179,370.232 177.054,370.101 176.714 C 369.972 176.377,370.046 176.197,370.293 176.246 C 370.514 176.289,370.675 176.065,370.650 175.749 C 370.624 175.421,370.756 175.266,370.955 175.389 C 371.181 175.529,371.220 175.385,371.065 174.982 C 370.934 174.639,370.932 174.464,371.062 174.594 C 371.407 174.939,372.266 173.577,371.988 173.127 C 371.831 172.873,371.899 172.836,372.191 173.016 C 372.512 173.215,372.571 173.135,372.411 172.719 C 372.291 172.406,372.329 172.235,372.497 172.339 C 372.890 172.582,373.294 171.316,372.983 170.813 C 372.835 170.573,372.890 170.517,373.128 170.664 C 373.393 170.828,373.510 170.483,373.510 169.536 C 373.510 168.590,373.393 168.245,373.128 168.409 C 372.878 168.564,372.836 168.499,373.007 168.223 C 373.312 167.729,371.223 163.187,370.808 163.443 C 370.659 163.535,370.636 163.355,370.755 163.042 C 370.915 162.626,370.856 162.547,370.535 162.745 C 370.243 162.925,370.175 162.888,370.332 162.635 C 370.611 162.184,369.751 160.823,369.406 161.168 C 369.277 161.297,369.278 161.123,369.410 160.780 C 369.575 160.349,369.531 160.229,369.265 160.393 C 369.007 160.553,368.953 160.445,369.100 160.062 C 369.259 159.646,369.200 159.567,368.879 159.765 C 368.588 159.945,368.520 159.908,368.677 159.654 C 368.955 159.204,368.096 157.842,367.751 158.187 C 367.621 158.317,367.622 158.143,367.754 157.800 C 367.919 157.369,367.875 157.249,367.610 157.413 C 367.351 157.573,367.297 157.465,367.444 157.082 C 367.604 156.666,367.545 156.586,367.224 156.785 C 366.932 156.965,366.864 156.928,367.021 156.674 C 367.299 156.224,366.440 154.862,366.095 155.207 C 365.965 155.337,365.967 155.163,366.098 154.820 C 366.264 154.389,366.219 154.269,365.954 154.433 C 365.696 154.593,365.642 154.485,365.789 154.102 C 365.948 153.686,365.889 153.606,365.568 153.805 C 365.276 153.985,365.209 153.948,365.365 153.694 C 365.644 153.244,364.784 151.882,364.440 152.227 C 364.310 152.357,364.311 152.183,364.443 151.840 C 364.622 151.372,364.572 151.284,364.244 151.487 C 363.952 151.667,363.884 151.630,364.041 151.376 C 364.319 150.926,363.460 149.564,363.115 149.909 C 362.985 150.039,362.987 149.865,363.118 149.522 C 363.284 149.091,363.239 148.971,362.974 149.135 C 362.715 149.295,362.661 149.187,362.808 148.804 C 362.968 148.388,362.909 148.308,362.588 148.507 C 362.296 148.687,362.228 148.650,362.385 148.396 C 362.676 147.926,361.800 146.598,361.424 146.939 C 361.274 147.075,361.259 146.999,361.390 146.772 C 361.665 146.295,360.607 144.325,360.208 144.572 C 360.061 144.662,360.039 144.481,360.159 144.168 C 360.306 143.785,360.252 143.677,359.994 143.837 C 359.735 143.997,359.681 143.889,359.828 143.506 C 359.988 143.090,359.929 143.010,359.608 143.209 C 359.316 143.389,359.248 143.352,359.405 143.098 C 359.683 142.648,358.824 141.286,358.479 141.631 C 358.349 141.761,358.351 141.587,358.482 141.244 C 358.648 140.812,358.603 140.693,358.338 140.857 C 358.080 141.017,358.026 140.909,358.173 140.526 C 358.332 140.110,358.273 140.030,357.952 140.229 C 357.661 140.409,357.593 140.372,357.749 140.118 C 358.028 139.668,357.169 138.306,356.824 138.651 C 356.694 138.781,356.695 138.606,356.827 138.263 C 356.982 137.860,356.942 137.716,356.716 137.856 C 356.517 137.979,356.386 137.824,356.412 137.496 C 356.437 137.180,356.276 136.956,356.055 136.999 C 355.807 137.048,355.733 136.868,355.863 136.531 C 356.003 136.167,355.945 136.063,355.689 136.221 C 355.431 136.381,355.377 136.273,355.524 135.890 C 355.683 135.474,355.624 135.394,355.303 135.593 C 355.012 135.773,354.944 135.736,355.100 135.482 C 355.391 135.012,354.515 133.684,354.139 134.025 C 353.990 134.161,353.974 134.086,354.105 133.858 C 354.380 133.381,353.322 131.411,352.923 131.658 C 352.777 131.748,352.755 131.567,352.875 131.254 C 353.022 130.871,352.968 130.763,352.709 130.923 C 352.451 131.083,352.397 130.975,352.544 130.592 C 352.681 130.234,352.632 130.104,352.412 130.240 C 352.212 130.363,352.081 130.208,352.107 129.881 C 352.132 129.564,351.971 129.340,351.750 129.383 C 351.502 129.432,351.429 129.253,351.558 128.915 C 351.698 128.551,351.640 128.447,351.385 128.605 C 351.126 128.765,351.072 128.657,351.219 128.274 C 351.366 127.891,351.312 127.783,351.053 127.943 C 350.795 128.103,350.741 127.995,350.888 127.612 C 351.025 127.254,350.976 127.124,350.756 127.260 C 350.557 127.383,350.425 127.228,350.451 126.900 C 350.476 126.584,350.316 126.360,350.095 126.403 C 349.847 126.452,349.773 126.272,349.903 125.935 C 350.043 125.571,349.985 125.467,349.729 125.625 C 349.470 125.785,349.416 125.677,349.563 125.294 C 349.723 124.878,349.664 124.798,349.343 124.997 C 349.051 125.177,348.983 125.140,349.140 124.886 C 349.419 124.436,348.559 123.074,348.214 123.419 C 348.085 123.549,348.086 123.375,348.218 123.032 C 348.383 122.601,348.338 122.481,348.073 122.645 C 347.815 122.805,347.761 122.697,347.908 122.314 C 348.067 121.898,348.008 121.818,347.687 122.017 C 347.396 122.197,347.328 122.160,347.485 121.906 C 347.763 121.456,346.904 120.094,346.559 120.439 C 346.429 120.569,346.430 120.395,346.562 120.051 C 346.741 119.584,346.691 119.496,346.363 119.699 C 346.071 119.879,346.003 119.842,346.160 119.588 C 346.438 119.138,345.579 117.776,345.234 118.121 C 345.104 118.251,345.106 118.077,345.237 117.734 C 345.403 117.302,345.358 117.183,345.093 117.347 C 344.835 117.507,344.781 117.399,344.928 117.016 C 345.087 116.600,345.028 116.520,344.707 116.719 C 344.416 116.899,344.348 116.862,344.504 116.608 C 344.783 116.158,343.924 114.796,343.579 115.141 C 343.449 115.271,343.450 115.097,343.582 114.753 C 343.761 114.286,343.711 114.198,343.383 114.401 C 343.091 114.581,343.023 114.544,343.180 114.290 C 343.458 113.840,342.599 112.478,342.254 112.823 C 342.124 112.953,342.126 112.779,342.257 112.436 C 342.423 112.004,342.378 111.885,342.113 112.049 C 341.855 112.209,341.801 112.101,341.947 111.718 C 342.107 111.302,342.048 111.222,341.727 111.421 C 341.435 111.601,341.367 111.564,341.524 111.310 C 341.803 110.860,340.943 109.498,340.598 109.843 C 340.469 109.973,340.470 109.798,340.602 109.455 C 340.781 108.988,340.731 108.900,340.402 109.103 C 340.111 109.283,340.043 109.246,340.200 108.992 C 340.478 108.542,339.619 107.180,339.274 107.525 C 339.144 107.655,339.146 107.481,339.277 107.138 C 339.443 106.706,339.398 106.587,339.133 106.751 C 338.874 106.911,338.820 106.803,338.967 106.420 C 339.127 106.004,339.068 105.924,338.747 106.123 C 338.455 106.303,338.387 106.266,338.544 106.012 C 338.823 105.562,337.963 104.200,337.618 104.545 C 337.488 104.675,337.490 104.500,337.622 104.157 C 337.787 103.726,337.742 103.607,337.477 103.771 C 337.219 103.931,337.165 103.823,337.312 103.440 C 337.449 103.082,337.400 102.952,337.180 103.088 C 336.981 103.211,336.849 103.056,336.875 102.728 C 336.900 102.411,336.740 102.188,336.519 102.231 C 336.271 102.280,336.197 102.100,336.326 101.763 C 336.466 101.398,336.408 101.295,336.153 101.453 C 335.894 101.613,335.840 101.505,335.987 101.122 C 336.147 100.706,336.088 100.626,335.767 100.825 C 335.475 101.005,335.407 100.968,335.564 100.714 C 335.842 100.264,334.983 98.902,334.638 99.247 C 334.508 99.377,334.510 99.202,334.641 98.859 C 334.807 98.428,334.762 98.309,334.497 98.473 C 334.239 98.633,334.185 98.525,334.332 98.142 C 334.491 97.726,334.432 97.646,334.111 97.845 C 333.820 98.025,333.752 97.988,333.908 97.734 C 334.199 97.263,333.323 95.936,332.947 96.277 C 332.798 96.412,332.782 96.337,332.913 96.110 C 333.188 95.632,332.130 93.663,331.731 93.909 C 331.584 94.000,331.563 93.818,331.683 93.506 C 331.830 93.123,331.776 93.015,331.517 93.175 C 331.259 93.335,331.205 93.227,331.351 92.844 C 331.511 92.428,331.452 92.348,331.131 92.547 C 330.839 92.727,330.771 92.690,330.928 92.436 C 331.207 91.985,330.347 90.624,330.002 90.969 C 329.873 91.099,329.874 90.924,330.006 90.581 C 330.171 90.150,330.127 90.031,329.861 90.195 C 329.603 90.354,329.549 90.246,329.696 89.864 C 329.855 89.448,329.796 89.368,329.475 89.566 C 329.184 89.747,329.116 89.709,329.273 89.456 C 329.551 89.005,328.692 87.644,328.347 87.989 C 328.217 88.119,328.218 87.944,328.350 87.601 C 328.515 87.170,328.471 87.051,328.206 87.215 C 327.947 87.374,327.893 87.266,328.040 86.883 C 328.200 86.467,328.141 86.388,327.820 86.586 C 327.528 86.766,327.460 86.729,327.617 86.476 C 327.895 86.025,327.036 84.664,326.691 85.009 C 326.561 85.138,326.563 84.964,326.694 84.621 C 326.874 84.154,326.824 84.065,326.495 84.268 C 326.204 84.449,326.136 84.411,326.293 84.158 C 326.571 83.707,325.712 82.346,325.367 82.691 C 325.237 82.821,325.238 82.646,325.370 82.303 C 325.549 81.836,325.499 81.747,325.171 81.950 C 324.879 82.131,324.811 82.094,324.968 81.840 C 325.246 81.389,324.387 80.028,324.042 80.373 C 323.912 80.503,323.914 80.328,324.045 79.985 C 324.211 79.554,324.166 79.435,323.901 79.599 C 323.643 79.758,323.589 79.650,323.736 79.268 C 323.895 78.851,323.836 78.772,323.515 78.970 C 323.223 79.151,323.156 79.113,323.312 78.860 C 323.591 78.409,322.731 77.048,322.387 77.393 C 322.257 77.523,322.258 77.348,322.390 77.005 C 322.555 76.574,322.511 76.455,322.245 76.619 C 321.987 76.778,321.933 76.670,322.080 76.287 C 322.217 75.930,322.168 75.799,321.948 75.935 C 321.749 76.059,321.618 75.903,321.643 75.576 C 321.668 75.259,321.508 75.035,321.287 75.079 C 321.039 75.127,320.965 74.948,321.095 74.611 C 321.235 74.246,321.177 74.143,320.921 74.301 C 320.662 74.460,320.608 74.352,320.755 73.970 C 320.915 73.553,320.856 73.474,320.535 73.672 C 320.243 73.853,320.175 73.815,320.332 73.562 C 320.611 73.111,319.751 71.750,319.406 72.095 C 319.277 72.225,319.278 72.050,319.410 71.707 C 319.589 71.240,319.539 71.151,319.210 71.354 C 318.919 71.535,318.851 71.498,319.008 71.244 C 319.286 70.793,318.427 69.432,318.082 69.777 C 317.952 69.907,317.953 69.732,318.085 69.389 C 318.251 68.958,318.206 68.839,317.941 69.003 C 317.682 69.162,317.628 69.054,317.775 68.671 C 317.935 68.255,317.876 68.176,317.555 68.374 C 317.263 68.555,317.195 68.517,317.352 68.264 C 317.630 67.813,316.771 66.452,316.426 66.797 C 316.296 66.927,316.298 66.752,316.429 66.409 C 316.595 65.978,316.550 65.859,316.285 66.022 C 316.027 66.182,315.973 66.074,316.120 65.691 C 316.279 65.275,316.220 65.196,315.899 65.394 C 315.608 65.574,315.540 65.537,315.696 65.284 C 315.975 64.833,315.116 63.472,314.771 63.817 C 314.641 63.946,314.642 63.772,314.774 63.429 C 314.939 62.998,314.895 62.878,314.630 63.042 C 314.371 63.202,314.317 63.094,314.464 62.711 C 314.601 62.354,314.552 62.223,314.332 62.359 C 314.133 62.482,314.002 62.327,314.027 62.000 C 314.052 61.683,313.892 61.459,313.671 61.503 C 313.423 61.551,313.349 61.372,313.479 61.034 C 313.619 60.670,313.561 60.566,313.305 60.724 C 313.047 60.884,312.993 60.776,313.140 60.393 C 313.299 59.977,313.240 59.898,312.919 60.096 C 312.627 60.276,312.560 60.239,312.716 59.986 C 312.995 59.535,312.135 58.174,311.791 58.519 C 311.661 58.648,311.662 58.474,311.794 58.131 C 311.959 57.700,311.915 57.580,311.649 57.744 C 311.391 57.904,311.337 57.796,311.484 57.413 C 311.644 56.997,311.584 56.918,311.263 57.116 C 310.972 57.296,310.904 57.259,311.061 57.005 C 311.339 56.555,310.480 55.193,310.135 55.538 C 310.005 55.668,310.006 55.494,310.138 55.151 C 310.304 54.720,310.259 54.600,309.994 54.764 C 309.735 54.924,309.681 54.816,309.828 54.433 C 309.965 54.076,309.917 53.945,309.696 54.081 C 309.497 54.204,309.366 54.049,309.392 53.722 C 309.417 53.405,309.256 53.181,309.035 53.225 C 308.787 53.273,308.714 53.094,308.843 52.756 C 308.983 52.392,308.925 52.288,308.669 52.446 C 308.411 52.606,308.357 52.498,308.504 52.115 C 308.663 51.699,308.604 51.620,308.283 51.818 C 307.992 51.998,307.924 51.961,308.081 51.707 C 308.359 51.257,307.500 49.895,307.155 50.240 C 307.025 50.370,307.026 50.196,307.158 49.853 C 307.337 49.385,307.287 49.297,306.959 49.500 C 306.667 49.680,306.599 49.643,306.756 49.389 C 307.047 48.919,306.171 47.592,305.795 47.933 C 305.645 48.068,305.630 47.993,305.761 47.766 C 306.036 47.288,304.978 45.318,304.579 45.565 C 304.432 45.656,304.410 45.474,304.530 45.162 C 304.677 44.779,304.623 44.671,304.365 44.830 C 304.106 44.990,304.052 44.882,304.199 44.499 C 304.359 44.083,304.300 44.004,303.979 44.202 C 303.687 44.382,303.619 44.345,303.776 44.091 C 304.067 43.621,303.191 42.294,302.815 42.635 C 302.665 42.770,302.650 42.695,302.781 42.468 C 303.055 41.990,301.998 40.020,301.599 40.267 C 301.452 40.358,301.430 40.176,301.550 39.864 C 301.697 39.481,301.643 39.373,301.385 39.532 C 301.126 39.692,301.072 39.584,301.219 39.201 C 301.379 38.785,301.320 38.706,300.998 38.904 C 300.707 39.084,300.639 39.047,300.796 38.793 C 301.074 38.343,300.215 36.982,299.870 37.326 C 299.740 37.456,299.742 37.282,299.873 36.939 C 300.053 36.471,300.003 36.383,299.674 36.586 C 299.382 36.766,299.314 36.729,299.471 36.476 C 299.750 36.025,298.890 34.664,298.546 35.009 C 298.416 35.138,298.417 34.964,298.549 34.621 C 298.714 34.190,298.670 34.071,298.404 34.234 C 298.146 34.394,298.092 34.286,298.239 33.903 C 298.376 33.546,298.327 33.415,298.107 33.551 C 297.908 33.674,297.776 33.519,297.802 33.192 C 297.827 32.875,297.667 32.651,297.446 32.695 C 297.198 32.743,297.124 32.564,297.254 32.226 C 297.394 31.862,297.336 31.759,297.080 31.917 C 296.821 32.076,296.767 31.968,296.914 31.585 C 297.061 31.202,297.007 31.094,296.749 31.254 C 296.490 31.414,296.436 31.306,296.583 30.923 C 296.743 30.507,296.684 30.428,296.363 30.626 C 296.080 30.801,296.004 30.769,296.148 30.535 C 296.421 30.094,295.238 28.051,294.904 28.385 C 294.774 28.516,294.775 28.342,294.906 27.999 C 295.061 27.595,295.022 27.451,294.796 27.591 C 294.597 27.714,294.465 27.559,294.491 27.232 C 294.516 26.915,294.356 26.691,294.134 26.734 C 293.887 26.783,293.813 26.603,293.942 26.266 C 294.073 25.926,294.020 25.801,293.802 25.935 C 293.603 26.059,293.472 25.903,293.498 25.576 C 293.523 25.259,293.362 25.035,293.141 25.079 C 292.893 25.127,292.820 24.948,292.949 24.611 C 293.101 24.214,293.038 24.138,292.720 24.335 C 292.442 24.507,292.361 24.477,292.500 24.253 C 292.786 23.790,292.399 22.800,292.022 23.032 C 291.861 23.132,291.828 22.958,291.947 22.645 C 292.107 22.229,292.048 22.149,291.727 22.348 C 291.435 22.528,291.367 22.491,291.524 22.237 C 291.777 21.828,290.959 20.409,290.649 20.720 C 290.547 20.822,290.486 20.634,290.513 20.304 C 290.541 19.962,290.373 19.741,290.124 19.793 C 289.883 19.843,289.780 19.732,289.895 19.545 C 290.168 19.104,289.263 17.809,288.907 18.131 C 288.758 18.267,288.731 18.210,288.848 18.005 C 288.965 17.800,288.614 17.015,288.067 16.260 L 287.073 14.888 283.934 15.109 C 281.629 15.271,280.795 15.226,280.795 14.941 C 280.795 14.193,105.409 14.584,104.603 15.334 M87.748 55.583 C 87.748 55.740,87.354 55.793,86.871 55.701 C 86.317 55.595,86.072 55.659,86.206 55.875 C 86.322 56.064,86.160 56.196,85.841 56.171 C 85.522 56.146,85.306 56.322,85.356 56.564 C 85.406 56.806,85.311 56.919,85.145 56.816 C 84.700 56.541,84.009 57.517,84.296 58.015 C 84.432 58.251,84.421 58.333,84.272 58.197 C 83.887 57.849,83.025 59.186,83.312 59.686 C 83.443 59.913,83.428 59.989,83.278 59.853 C 82.902 59.512,82.026 60.839,82.317 61.310 C 82.474 61.564,82.406 61.601,82.114 61.421 C 81.793 61.222,81.734 61.302,81.894 61.718 C 82.014 62.030,81.992 62.212,81.845 62.121 C 81.455 61.880,80.384 63.842,80.661 64.290 C 80.791 64.501,80.753 64.583,80.575 64.473 C 80.138 64.203,79.041 66.123,79.339 66.640 C 79.469 66.867,79.454 66.942,79.305 66.807 C 78.928 66.466,78.052 67.793,78.343 68.264 C 78.500 68.517,78.432 68.555,78.141 68.374 C 77.819 68.176,77.760 68.255,77.920 68.671 C 78.067 69.054,78.013 69.162,77.755 69.003 C 77.489 68.839,77.445 68.958,77.610 69.389 C 77.742 69.732,77.743 69.907,77.613 69.777 C 77.269 69.432,76.409 70.793,76.688 71.244 C 76.844 71.498,76.777 71.535,76.485 71.354 C 76.156 71.151,76.106 71.240,76.286 71.707 C 76.417 72.050,76.419 72.225,76.289 72.095 C 75.944 71.750,75.085 73.111,75.363 73.562 C 75.520 73.815,75.452 73.853,75.160 73.672 C 74.832 73.469,74.782 73.558,74.961 74.025 C 75.093 74.368,75.094 74.542,74.964 74.413 C 74.620 74.068,73.760 75.429,74.039 75.880 C 74.195 76.133,74.128 76.170,73.836 75.990 C 73.507 75.787,73.457 75.875,73.637 76.343 C 73.768 76.686,73.770 76.860,73.640 76.730 C 73.295 76.386,72.436 77.747,72.714 78.197 C 72.871 78.451,72.803 78.488,72.511 78.308 C 72.190 78.110,72.131 78.189,72.291 78.605 C 72.438 78.988,72.384 79.096,72.125 78.936 C 71.860 78.773,71.816 78.892,71.981 79.323 C 72.113 79.666,72.114 79.840,71.984 79.711 C 71.639 79.366,70.780 80.727,71.058 81.178 C 71.215 81.431,71.147 81.468,70.856 81.288 C 70.535 81.090,70.476 81.169,70.635 81.585 C 70.782 81.968,70.728 82.076,70.470 81.917 C 70.214 81.759,70.156 81.862,70.296 82.226 C 70.425 82.564,70.352 82.743,70.104 82.695 C 69.883 82.651,69.722 82.875,69.747 83.192 C 69.773 83.519,69.642 83.674,69.443 83.551 C 69.223 83.415,69.174 83.546,69.311 83.903 C 69.458 84.286,69.404 84.394,69.145 84.234 C 68.890 84.076,68.832 84.180,68.972 84.544 C 69.101 84.882,69.027 85.061,68.779 85.013 C 68.558 84.969,68.398 85.193,68.423 85.510 C 68.449 85.837,68.317 85.992,68.118 85.869 C 67.898 85.733,67.849 85.864,67.986 86.221 C 68.133 86.604,68.079 86.712,67.821 86.552 C 67.565 86.394,67.507 86.498,67.647 86.862 C 67.776 87.200,67.703 87.379,67.455 87.330 C 67.234 87.287,67.073 87.511,67.098 87.828 C 67.124 88.155,66.993 88.310,66.794 88.187 C 66.574 88.051,66.525 88.181,66.662 88.539 C 66.809 88.922,66.755 89.030,66.496 88.870 C 66.231 88.706,66.187 88.826,66.352 89.257 C 66.484 89.600,66.485 89.774,66.355 89.644 C 66.010 89.299,65.151 90.661,65.429 91.111 C 65.586 91.365,65.518 91.402,65.227 91.222 C 64.898 91.019,64.848 91.107,65.027 91.575 C 65.159 91.918,65.161 92.092,65.031 91.962 C 64.686 91.617,63.826 92.979,64.105 93.429 C 64.262 93.683,64.194 93.720,63.902 93.540 C 63.573 93.337,63.524 93.425,63.703 93.893 C 63.835 94.236,63.836 94.410,63.706 94.280 C 63.361 93.935,62.502 95.297,62.780 95.747 C 62.937 96.001,62.869 96.038,62.578 95.858 C 62.257 95.659,62.198 95.739,62.357 96.155 C 62.504 96.538,62.450 96.646,62.192 96.486 C 61.933 96.326,61.879 96.434,62.026 96.817 C 62.146 97.130,62.124 97.311,61.977 97.221 C 61.579 96.974,60.521 98.944,60.796 99.421 C 60.926 99.648,60.911 99.724,60.762 99.588 C 60.385 99.247,59.509 100.575,59.800 101.045 C 59.957 101.299,59.889 101.336,59.598 101.156 C 59.269 100.953,59.219 101.041,59.398 101.508 C 59.530 101.851,59.531 102.026,59.402 101.896 C 59.057 101.551,58.197 102.913,58.476 103.363 C 58.633 103.617,58.565 103.654,58.273 103.474 C 57.952 103.275,57.893 103.355,58.053 103.771 C 58.199 104.154,58.145 104.262,57.887 104.102 C 57.631 103.944,57.573 104.047,57.713 104.412 C 57.843 104.749,57.769 104.929,57.521 104.880 C 57.300 104.837,57.140 105.060,57.165 105.377 C 57.190 105.705,57.059 105.860,56.860 105.737 C 56.640 105.601,56.591 105.731,56.728 106.089 C 56.875 106.472,56.821 106.580,56.562 106.420 C 56.297 106.256,56.253 106.375,56.418 106.806 C 56.550 107.149,56.551 107.324,56.421 107.194 C 56.076 106.849,55.217 108.211,55.496 108.661 C 55.652 108.915,55.584 108.952,55.293 108.772 C 54.964 108.569,54.914 108.657,55.094 109.124 C 55.225 109.467,55.227 109.642,55.097 109.512 C 54.752 109.167,53.893 110.529,54.171 110.979 C 54.328 111.233,54.260 111.270,53.968 111.090 C 53.647 110.891,53.588 110.971,53.748 111.387 C 53.895 111.770,53.841 111.878,53.582 111.718 C 53.324 111.558,53.270 111.666,53.417 112.049 C 53.537 112.361,53.515 112.543,53.368 112.452 C 52.969 112.206,51.911 114.175,52.186 114.653 C 52.317 114.880,52.302 114.955,52.152 114.820 C 51.776 114.479,50.900 115.806,51.191 116.277 C 51.348 116.531,51.280 116.568,50.988 116.388 C 50.660 116.184,50.610 116.273,50.789 116.740 C 50.921 117.083,50.922 117.258,50.792 117.128 C 50.447 116.783,49.588 118.144,49.866 118.595 C 50.023 118.849,49.955 118.886,49.664 118.705 C 49.343 118.507,49.284 118.587,49.443 119.003 C 49.590 119.386,49.536 119.494,49.278 119.334 C 49.022 119.176,48.964 119.279,49.104 119.644 C 49.233 119.981,49.160 120.161,48.912 120.112 C 48.691 120.069,48.530 120.292,48.555 120.609 C 48.581 120.937,48.450 121.092,48.251 120.969 C 48.030 120.832,47.982 120.963,48.119 121.320 C 48.266 121.703,48.212 121.811,47.953 121.652 C 47.688 121.488,47.643 121.607,47.809 122.038 C 47.941 122.381,47.942 122.556,47.812 122.426 C 47.467 122.081,46.608 123.442,46.886 123.893 C 47.043 124.147,46.975 124.184,46.684 124.003 C 46.363 123.805,46.303 123.885,46.463 124.301 C 46.610 124.684,46.556 124.792,46.298 124.632 C 46.039 124.472,45.985 124.580,46.132 124.963 C 46.252 125.275,46.230 125.457,46.083 125.366 C 45.684 125.120,44.627 127.089,44.902 127.567 C 45.032 127.794,45.017 127.869,44.868 127.734 C 44.491 127.393,43.615 128.720,43.906 129.191 C 44.063 129.445,43.995 129.482,43.703 129.301 C 43.382 129.103,43.323 129.183,43.483 129.599 C 43.630 129.982,43.576 130.090,43.317 129.930 C 43.062 129.772,43.004 129.875,43.144 130.240 C 43.273 130.577,43.200 130.757,42.952 130.708 C 42.731 130.665,42.570 130.888,42.595 131.205 C 42.621 131.533,42.489 131.688,42.290 131.565 C 42.070 131.429,42.021 131.559,42.158 131.917 C 42.305 132.299,42.251 132.407,41.993 132.248 C 41.728 132.084,41.683 132.203,41.849 132.634 C 41.980 132.977,41.982 133.152,41.852 133.022 C 41.507 132.677,40.648 134.038,40.926 134.489 C 41.083 134.743,41.015 134.780,40.723 134.599 C 40.395 134.396,40.345 134.485,40.524 134.952 C 40.656 135.295,40.657 135.470,40.527 135.340 C 40.182 134.995,39.323 136.356,39.602 136.807 C 39.758 137.060,39.690 137.098,39.399 136.917 C 39.070 136.714,39.020 136.803,39.200 137.270 C 39.331 137.613,39.333 137.787,39.203 137.658 C 38.858 137.313,37.999 138.674,38.277 139.125 C 38.434 139.378,38.366 139.415,38.074 139.235 C 37.753 139.037,37.694 139.116,37.854 139.532 C 38.001 139.915,37.947 140.023,37.688 139.864 C 37.423 139.700,37.379 139.819,37.544 140.250 C 37.676 140.593,37.677 140.768,37.547 140.638 C 37.202 140.293,36.343 141.654,36.621 142.105 C 36.778 142.358,36.710 142.396,36.419 142.215 C 36.090 142.012,36.040 142.101,36.220 142.568 C 36.351 142.911,36.353 143.085,36.223 142.956 C 35.878 142.611,35.019 143.972,35.297 144.423 C 35.454 144.676,35.386 144.713,35.094 144.533 C 34.766 144.330,34.716 144.418,34.895 144.886 C 35.027 145.229,35.028 145.403,34.898 145.273 C 34.553 144.929,33.694 146.290,33.972 146.740 C 34.129 146.994,34.061 147.031,33.770 146.851 C 33.449 146.653,33.390 146.732,33.549 147.148 C 33.696 147.531,33.642 147.639,33.384 147.479 C 33.118 147.316,33.074 147.435,33.239 147.866 C 33.371 148.209,33.372 148.383,33.243 148.254 C 32.898 147.909,32.038 149.270,32.317 149.721 C 32.474 149.974,32.406 150.011,32.114 149.831 C 31.785 149.628,31.735 149.716,31.915 150.184 C 32.047 150.527,32.048 150.701,31.918 150.571 C 31.573 150.227,30.714 151.588,30.992 152.038 C 31.149 152.292,31.081 152.329,30.790 152.149 C 30.468 151.951,30.409 152.030,30.569 152.446 C 30.716 152.829,30.662 152.937,30.404 152.777 C 30.138 152.614,30.094 152.733,30.259 153.164 C 30.391 153.507,30.392 153.681,30.262 153.552 C 29.918 153.207,29.058 154.568,29.337 155.019 C 29.493 155.272,29.426 155.309,29.134 155.129 C 28.805 154.926,28.755 155.015,28.935 155.482 C 29.066 155.825,29.068 155.999,28.938 155.869 C 28.593 155.525,27.734 156.886,28.012 157.337 C 28.169 157.590,28.101 157.627,27.809 157.447 C 27.481 157.244,27.431 157.332,27.610 157.800 C 27.742 158.143,27.743 158.317,27.613 158.187 C 27.269 157.842,26.409 159.204,26.688 159.654 C 26.844 159.908,26.777 159.945,26.485 159.765 C 26.164 159.567,26.105 159.646,26.264 160.062 C 26.411 160.445,26.357 160.553,26.099 160.393 C 25.834 160.229,25.789 160.349,25.955 160.780 C 26.086 161.123,26.088 161.297,25.958 161.168 C 25.613 160.823,24.754 162.184,25.032 162.635 C 25.189 162.888,25.121 162.925,24.829 162.745 C 24.508 162.547,24.449 162.626,24.609 163.042 C 24.756 163.425,24.702 163.533,24.443 163.373 C 24.178 163.210,24.134 163.329,24.299 163.760 C 24.431 164.103,24.432 164.277,24.301 164.147 C 23.967 163.813,22.785 165.855,23.057 166.296 C 23.192 166.514,23.128 166.564,22.899 166.422 C 22.543 166.203,22.385 166.664,22.428 167.798 C 22.436 168.026,22.311 168.212,22.149 168.212 C 21.987 168.212,21.854 168.444,21.854 168.728 C 21.854 169.034,22.010 169.148,22.237 169.008 C 22.480 168.858,22.529 168.918,22.370 169.174 C 22.065 169.668,22.812 171.584,23.213 171.336 C 23.372 171.238,23.404 171.413,23.284 171.726 C 23.125 172.142,23.184 172.221,23.505 172.023 C 23.796 171.843,23.864 171.880,23.707 172.134 C 23.429 172.584,24.288 173.946,24.633 173.601 C 24.763 173.471,24.762 173.645,24.630 173.988 C 24.451 174.456,24.501 174.544,24.829 174.341 C 25.121 174.161,25.189 174.198,25.032 174.452 C 24.754 174.902,25.613 176.263,25.958 175.919 C 26.088 175.789,26.086 175.963,25.955 176.306 C 25.775 176.774,25.825 176.862,26.154 176.659 C 26.445 176.479,26.513 176.516,26.356 176.769 C 26.078 177.220,26.937 178.581,27.282 178.236 C 27.412 178.107,27.411 178.281,27.279 178.624 C 27.124 179.027,27.163 179.171,27.390 179.031 C 27.589 178.908,27.720 179.063,27.694 179.391 C 27.669 179.708,27.830 179.931,28.051 179.888 C 28.299 179.839,28.372 180.019,28.243 180.356 C 28.091 180.753,28.154 180.829,28.472 180.632 C 28.763 180.452,28.831 180.489,28.674 180.743 C 28.396 181.193,29.255 182.555,29.600 182.210 C 29.730 182.080,29.729 182.254,29.597 182.598 C 29.442 183.001,29.481 183.145,29.708 183.005 C 29.907 182.882,30.038 183.037,30.012 183.364 C 29.987 183.681,30.148 183.905,30.369 183.862 C 30.617 183.813,30.690 183.993,30.561 184.330 C 30.409 184.726,30.472 184.802,30.790 184.606 C 31.081 184.426,31.149 184.463,30.992 184.716 C 30.701 185.187,31.577 186.514,31.954 186.173 C 32.103 186.038,32.118 186.113,31.988 186.340 C 31.712 186.819,32.558 188.192,32.911 187.839 C 33.041 187.709,33.040 187.884,32.908 188.227 C 32.753 188.630,32.793 188.774,33.019 188.634 C 33.218 188.511,33.349 188.666,33.324 188.994 C 33.299 189.310,33.459 189.534,33.680 189.491 C 33.928 189.442,34.002 189.622,33.872 189.959 C 33.720 190.355,33.783 190.431,34.101 190.235 C 34.392 190.055,34.460 190.092,34.304 190.346 C 34.025 190.796,34.884 192.158,35.229 191.813 C 35.359 191.683,35.358 191.857,35.226 192.200 C 35.071 192.603,35.110 192.747,35.337 192.608 C 35.536 192.485,35.667 192.640,35.641 192.967 C 35.616 193.284,35.777 193.508,35.998 193.464 C 36.246 193.416,36.320 193.595,36.190 193.932 C 36.060 194.273,36.113 194.398,36.330 194.263 C 36.529 194.140,36.661 194.295,36.635 194.623 C 36.610 194.940,36.770 195.163,36.991 195.120 C 37.239 195.071,37.313 195.251,37.183 195.588 C 37.031 195.984,37.094 196.060,37.412 195.864 C 37.704 195.684,37.772 195.721,37.615 195.975 C 37.336 196.425,38.196 197.787,38.541 197.442 C 38.670 197.312,38.669 197.486,38.537 197.829 C 38.383 198.233,38.422 198.377,38.648 198.237 C 38.847 198.114,38.978 198.269,38.953 198.596 C 38.928 198.913,39.088 199.137,39.309 199.093 C 39.557 199.045,39.631 199.224,39.501 199.562 C 39.349 199.958,39.412 200.034,39.730 199.838 C 40.022 199.657,40.089 199.694,39.933 199.948 C 39.642 200.419,40.518 201.746,40.894 201.405 C 41.043 201.270,41.059 201.345,40.928 201.572 C 40.652 202.051,41.499 203.424,41.852 203.071 C 41.982 202.941,41.980 203.115,41.849 203.458 C 41.669 203.926,41.719 204.014,42.048 203.811 C 42.339 203.631,42.407 203.668,42.251 203.922 C 41.960 204.392,42.836 205.720,43.212 205.379 C 43.361 205.243,43.377 205.318,43.246 205.546 C 42.970 206.024,43.817 207.397,44.170 207.044 C 44.300 206.915,44.298 207.089,44.167 207.432 C 44.012 207.835,44.051 207.979,44.277 207.839 C 44.476 207.716,44.608 207.871,44.582 208.199 C 44.557 208.516,44.717 208.739,44.938 208.696 C 45.186 208.647,45.260 208.827,45.130 209.164 C 44.978 209.561,45.041 209.637,45.359 209.440 C 45.651 209.260,45.719 209.297,45.562 209.551 C 45.283 210.001,46.143 211.363,46.488 211.018 C 46.617 210.888,46.616 211.062,46.484 211.405 C 46.330 211.809,46.369 211.953,46.595 211.813 C 46.794 211.690,46.926 211.845,46.900 212.172 C 46.875 212.489,47.035 212.713,47.256 212.670 C 47.504 212.621,47.578 212.800,47.448 213.138 C 47.296 213.534,47.359 213.610,47.677 213.414 C 47.969 213.234,48.036 213.271,47.880 213.524 C 47.601 213.975,48.461 215.336,48.805 214.991 C 48.935 214.862,48.934 215.036,48.802 215.379 C 48.648 215.782,48.687 215.926,48.913 215.786 C 49.112 215.663,49.243 215.818,49.218 216.146 C 49.193 216.463,49.353 216.686,49.574 216.643 C 49.822 216.594,49.896 216.774,49.766 217.111 C 49.626 217.476,49.684 217.579,49.940 217.421 C 50.198 217.261,50.252 217.369,50.105 217.752 C 49.968 218.110,50.017 218.240,50.237 218.104 C 50.437 217.981,50.568 218.136,50.542 218.464 C 50.517 218.781,50.678 219.004,50.899 218.961 C 51.147 218.912,51.220 219.092,51.091 219.429 C 50.939 219.826,51.002 219.902,51.319 219.705 C 51.611 219.525,51.679 219.562,51.522 219.816 C 51.231 220.286,52.107 221.614,52.483 221.273 C 52.633 221.137,52.648 221.212,52.517 221.440 C 52.242 221.919,53.088 223.291,53.441 222.938 C 53.571 222.809,53.570 222.983,53.438 223.326 C 53.283 223.729,53.322 223.873,53.549 223.733 C 53.748 223.610,53.879 223.765,53.853 224.093 C 53.828 224.410,53.989 224.633,54.210 224.590 C 54.458 224.541,54.531 224.721,54.402 225.058 C 54.271 225.398,54.324 225.524,54.542 225.389 C 54.741 225.266,54.873 225.421,54.847 225.749 C 54.822 226.065,54.982 226.289,55.203 226.246 C 55.451 226.197,55.525 226.377,55.395 226.714 C 55.243 227.110,55.306 227.186,55.624 226.990 C 55.916 226.810,55.984 226.847,55.827 227.101 C 55.548 227.551,56.408 228.913,56.752 228.568 C 56.882 228.438,56.881 228.612,56.749 228.955 C 56.595 229.358,56.634 229.502,56.860 229.363 C 57.059 229.240,57.190 229.395,57.165 229.722 C 57.140 230.039,57.300 230.263,57.521 230.219 C 57.769 230.171,57.843 230.350,57.713 230.687 C 57.561 231.084,57.624 231.160,57.942 230.963 C 58.233 230.783,58.301 230.820,58.145 231.074 C 57.866 231.524,58.725 232.886,59.070 232.541 C 59.200 232.411,59.199 232.586,59.067 232.929 C 58.912 233.332,58.952 233.476,59.178 233.336 C 59.377 233.213,59.508 233.368,59.482 233.696 C 59.458 234.012,59.618 234.236,59.839 234.193 C 60.087 234.144,60.161 234.324,60.031 234.661 C 59.879 235.057,59.942 235.133,60.260 234.937 C 60.551 234.757,60.619 234.794,60.462 235.048 C 60.172 235.518,61.048 236.846,61.424 236.505 C 61.573 236.369,61.589 236.444,61.458 236.672 C 61.182 237.150,62.029 238.523,62.382 238.170 C 62.512 238.040,62.510 238.215,62.378 238.558 C 62.224 238.961,62.263 239.105,62.489 238.965 C 62.688 238.842,62.820 238.997,62.794 239.325 C 62.769 239.642,62.929 239.865,63.150 239.822 C 63.398 239.773,63.472 239.953,63.342 240.290 C 63.212 240.630,63.265 240.755,63.483 240.621 C 63.682 240.498,63.813 240.653,63.787 240.980 C 63.762 241.297,63.923 241.521,64.144 241.477 C 64.392 241.429,64.465 241.608,64.336 241.946 C 64.196 242.310,64.254 242.414,64.509 242.256 C 64.768 242.096,64.822 242.204,64.675 242.587 C 64.538 242.944,64.587 243.075,64.807 242.939 C 65.006 242.816,65.137 242.971,65.112 243.298 C 65.087 243.615,65.247 243.839,65.468 243.795 C 65.716 243.747,65.790 243.926,65.660 244.264 C 65.530 244.604,65.583 244.729,65.800 244.594 C 65.999 244.471,66.131 244.626,66.105 244.954 C 66.080 245.271,66.240 245.494,66.462 245.451 C 66.709 245.402,66.783 245.582,66.654 245.919 C 66.502 246.316,66.565 246.392,66.882 246.195 C 67.174 246.015,67.242 246.052,67.085 246.306 C 66.794 246.776,67.670 248.104,68.046 247.763 C 68.196 247.627,68.211 247.703,68.080 247.930 C 67.805 248.409,68.651 249.781,69.004 249.429 C 69.134 249.299,69.133 249.473,69.001 249.816 C 68.846 250.219,68.885 250.363,69.112 250.223 C 69.311 250.100,69.442 250.256,69.416 250.583 C 69.391 250.900,69.552 251.123,69.773 251.080 C 70.021 251.032,70.094 251.211,69.965 251.548 C 69.813 251.945,69.876 252.021,70.194 251.824 C 70.485 251.644,70.553 251.681,70.396 251.935 C 70.118 252.385,70.977 253.747,71.322 253.402 C 71.452 253.272,71.450 253.447,71.319 253.790 C 71.164 254.193,71.203 254.337,71.430 254.197 C 71.629 254.074,71.760 254.229,71.734 254.557 C 71.709 254.873,71.870 255.097,72.091 255.054 C 72.339 255.005,72.412 255.185,72.283 255.522 C 72.131 255.918,72.194 255.994,72.511 255.798 C 72.803 255.618,72.871 255.655,72.714 255.909 C 72.423 256.379,73.299 257.706,73.676 257.365 C 73.825 257.230,73.840 257.305,73.709 257.533 C 73.434 258.011,74.280 259.384,74.633 259.031 C 74.763 258.901,74.762 259.076,74.630 259.419 C 74.475 259.822,74.514 259.966,74.741 259.826 C 74.940 259.703,75.071 259.858,75.045 260.186 C 75.020 260.502,75.181 260.726,75.402 260.683 C 75.650 260.634,75.723 260.814,75.594 261.151 C 75.442 261.547,75.505 261.623,75.823 261.427 C 76.114 261.247,76.182 261.284,76.025 261.538 C 75.747 261.988,76.606 263.350,76.951 263.005 C 77.081 262.875,77.080 263.049,76.948 263.392 C 76.793 263.796,76.832 263.939,77.059 263.800 C 77.258 263.677,77.389 263.832,77.363 264.159 C 77.338 264.476,77.499 264.700,77.720 264.656 C 77.968 264.608,78.041 264.787,77.912 265.125 C 77.760 265.521,77.823 265.597,78.141 265.401 C 78.432 265.220,78.500 265.257,78.343 265.511 C 78.052 265.982,78.928 267.309,79.305 266.968 C 79.454 266.833,79.469 266.908,79.339 267.135 C 79.063 267.614,79.909 268.987,80.262 268.634 C 80.392 268.504,80.391 268.678,80.259 269.021 C 80.104 269.425,80.144 269.569,80.370 269.429 C 80.569 269.306,80.700 269.461,80.675 269.788 C 80.650 270.105,80.810 270.329,81.031 270.285 C 81.279 270.237,81.353 270.416,81.223 270.754 C 81.083 271.118,81.141 271.222,81.397 271.064 C 81.655 270.904,81.709 271.012,81.562 271.395 C 81.425 271.752,81.474 271.883,81.694 271.747 C 81.893 271.624,82.025 271.779,81.999 272.106 C 81.974 272.423,82.135 272.647,82.356 272.603 C 82.603 272.555,82.677 272.734,82.548 273.072 C 82.417 273.412,82.470 273.537,82.688 273.402 C 82.887 273.279,83.018 273.434,82.992 273.762 C 82.967 274.079,83.128 274.302,83.349 274.259 C 83.570 274.216,83.672 274.385,83.576 274.636 C 83.321 275.300,85.934 277.946,86.594 277.693 C 86.899 277.576,87.035 277.629,86.918 277.818 C 86.797 278.014,87.265 278.146,88.079 278.146 C 88.829 278.146,89.360 278.011,89.257 277.845 C 89.155 277.680,89.393 277.629,89.786 277.732 C 90.319 277.871,90.432 277.808,90.232 277.484 C 90.048 277.186,90.092 277.129,90.373 277.303 C 90.622 277.457,91.161 277.193,91.749 276.630 L 92.715 275.704 92.715 166.684 L 92.715 57.664 91.474 56.635 C 90.599 55.910,90.012 55.660,89.487 55.789 C 89.077 55.890,88.742 55.821,88.742 55.635 C 88.742 55.450,88.518 55.298,88.245 55.298 C 87.972 55.298,87.748 55.426,87.748 55.583 " stroke="none" fill="#fcfcfc" fill-rule="evenodd"></path><path id="path1" d="M133.361 14.818 C 148.704 14.865,173.812 14.865,189.156 14.818 C 204.499 14.770,191.945 14.731,161.258 14.731 C 130.571 14.731,118.017 14.770,133.361 14.818 M281.705 15.140 C 282.297 15.214,283.266 15.214,283.858 15.140 C 284.450 15.067,283.965 15.007,282.781 15.007 C 281.598 15.007,281.113 15.067,281.705 15.140 M148.096 321.440 C 173.001 321.487,213.754 321.487,238.659 321.440 C 263.564 321.394,243.187 321.355,193.377 321.355 C 143.568 321.355,123.191 321.394,148.096 321.440 " stroke="none" fill="#c1c1c1" fill-rule="evenodd"></path><path id="path2" d="" stroke="none" fill="#dcdcdc" fill-rule="evenodd"></path><path id="path3" d="" stroke="none" fill="#d4d4d4" fill-rule="evenodd"></path><path id="path4" d="" stroke="none" fill="#e4e4e4" fill-rule="evenodd"></path></g></svg>